<svg xmlns="http://www.w3.org/2000/svg" style="display:none">
  <symbol id="scw-roll" viewBox="0 0 24 24">
    <rect x="7" y="2" width="10" height="20" rx="5" fill="currentColor"/>
  </symbol>
  <symbol id="scw-cotton" viewBox="0 0 24 24">
    <circle cx="9" cy="10" r="5" fill="currentColor"/>
    <circle cx="15" cy="10" r="5" fill="currentColor"/>
    <circle cx="12" cy="15" r="5" fill="currentColor"/>
  </symbol>
  <symbol id="scw-yarn" viewBox="0 0 24 24">
    <circle cx="12" cy="12" r="10" fill="currentColor"/>
    <path d="M5 7c4 2.5 4 11.5 0 14M19 7c-4 2.5-4 11.5 0 14M8 3c2.5 4 2.5 14 0 18M16 3c-2.5 4-2.5 14 0 18"
          fill="none" stroke="#1D9E75" stroke-width="1.3" stroke-linecap="round"/>
  </symbol>
  <symbol id="scw-fabric" viewBox="0 0 24 24">
    <rect x="3" y="14" width="18" height="5" rx="2" fill="currentColor"/>
    <rect x="4.5" y="9" width="15" height="5" rx="2" fill="currentColor"/>
    <rect x="6" y="4" width="12" height="5" rx="2" fill="currentColor"/>
  </symbol>
  <symbol id="scw-pad" viewBox="0 0 24 24">
    <ellipse cx="12" cy="12" rx="9" ry="7" fill="currentColor"/>
  </symbol>
  <symbol id="scw-swab" viewBox="0 0 24 24">
    <rect x="10.5" y="2" width="3" height="20" rx="1.5" fill="currentColor"/>
    <circle cx="12" cy="4" r="4" fill="currentColor"/>
    <circle cx="12" cy="20" r="4" fill="currentColor"/>
  </symbol>
  <symbol id="scw-tissue" viewBox="0 0 24 24">
    <path d="M4 8c3-3 6 3 8 0s5-3 8 0v4c-3 3-6-3-8 0s-5 3-8 0V8z" fill="currentColor"/>
    <rect x="3" y="14" width="18" height="7" rx="2" fill="currentColor"/>
  </symbol>
</svg>
