<svg xmlns="http://www.w3.org/2000/svg" style="display:none">
  <symbol id="scw-roll" viewBox="82 268 170 184">
    <path fill="currentColor" d="m783.973 297.566 6.999-.015q7.309-.013 14.617.003c6.223.011 12.445-.009 18.667-.038 4.812-.018 9.624-.018 14.436-.012q3.44 0 6.881-.019c3.213-.015 6.425-.004 9.638.013l2.827-.029c12.183.135 23.23 5.474 32.22 13.562 7.006 7.353 12.237 16.85 13.742 26.969l.438 2.664c1.475 11.649-.946 23.473-7.438 33.336-3.398 4.269-7.127 8.164-11 12l2.625.25c4.918 1.093 8.002 3.454 11.625 6.875 3.15 5.174 4.394 11.062 3.25 17.063-1.71 5.416-5.193 9.324-9.91 12.367-4.985 2.007-9.525 2.01-14.86 2.113l-3.62.098c-18.715.446-37.44.495-56.159.53-5.557.01-11.115.045-16.673.084-4.347.027-8.694.035-13.042.038q-3.073.008-6.145.035c-21.273.184-42.008-2.657-58.036-18.14-12.866-14.48-18.681-31.082-18.367-50.41 1.446-18.069 9.936-33.91 23.562-45.653 16.766-13.09 33.341-13.719 53.723-13.684M144.508 286.695c6.486 5.287 9.874 11.452 12.492 19.305.228 2.733.417 5.45.563 8.188l.13 2.271q.158 2.77.307 5.541l3.03.031q14.106.147 28.21.308 7.252.084 14.505.158 6.993.072 13.986.156 2.673.031 5.348.056 3.732.037 7.464.086l2.256.017c5.087.074 5.087.074 6.201 1.188.097 1.351.126 2.707.127 4.062l.009 2.651-.007 2.932.006 3.069q.004 5.049-.002 10.099l.003 6.983q.001 7.329-.006 14.658-.006 9.418.004 18.836.005 7.214 0 14.427 0 3.474.002 6.947.003 4.846-.007 9.691l.007 2.932-.009 2.651-.001 2.318C239 428 239 428 238 429a73 73 0 0 1-4.609.14l-3.02.018-3.341.003-3.499.015q-5.764.021-11.527.027l-5.975.013q-8.337.018-16.673.023-10.761.007-21.522.05-8.325.034-16.65.034-4.966 0-9.934.025c-3.705.017-7.41.015-11.115.008l-3.287.028C115.761 429.324 106.991 426.93 99 419c-6.308-7.767-8.297-14.715-8.322-24.579l-.03-2.87c-.03-3.124-.043-6.247-.054-9.371l-.035-6.547q-.029-6.863-.04-13.724c-.01-5.837-.058-11.673-.115-17.51-.038-4.51-.048-9.019-.051-13.528q-.009-3.226-.049-6.451c-.272-23.864-.272-23.864 8.972-33.888 12.128-11.75 31.166-13.345 45.232-3.837M495.492 276.504c8.086 5.649 13.662 14.22 16.067 23.777 2.043 12.588-.096 23.685-7.434 34.219-2.922 3.591-6.239 6.013-10.125 8.5.313 1.875.313 1.875 1 4 3.278 2.185 3.852 2.206 7.57 1.906l2.72-.183q2.8-.22 5.6-.446c12.422-.831 21.364 2.533 30.86 10.536 8.354 7.786 12.187 16.672 12.655 28.09.116 7.4-.733 13.575-4.405 20.097l-1.32 2.36c-6.074 9.89-13.742 14.99-24.68 18.64-11.08 2.625-22.073.422-31.805-5.437-8.596-6.119-14.689-13.738-16.715-24.262-.246-2.092-.377-4.197-.48-6.301h-5l-.125 3.25c-1.027 8.232-5.535 16.466-11.875 21.75l-1.738 1.703c-7.795 7.435-17.151 10.714-27.93 10.508-12.266-1.11-21.131-6.227-29.543-15.008-6.628-8.162-9.331-17.905-9.101-28.277 1.199-11.226 6.463-21.996 15.062-29.301 8.692-6.48 18.387-9.51 29.25-8.625q3.096.68 6.188 1.375c5.253.983 5.253.983 7.69-.578 1.372-1.672 1.372-1.672 3.122-4.797l-1.977-1.617c-9.143-7.795-15.271-15.884-16.359-28.18-.134-13.6 2.743-23.395 12.406-33.332 14.496-13.713 33.67-14.477 50.422-4.367"/>
    <path fill="currentColor" d="M157 329q14.642-.034 29.285-.052 6.798-.007 13.596-.023 6.555-.016 13.11-.02 2.508-.003 5.014-.01 3.498-.01 6.997-.009l2.114-.01c4.77.01 4.77.01 5.884 1.124.1 2.856.136 5.687.13 8.543l.003 11.644q0 3.09.003 6.177.001 6.482-.006 12.963-.006 8.329.004 16.657.005 6.38 0 12.76 0 3.07.002 6.143.003 4.285-.007 8.57l.007 2.591c-.022 5.838-.022 5.838-1.136 6.952-2.708.095-5.391.126-8.1.114h-2.572c-2.819 0-5.638-.009-8.457-.016l-5.847-.005q-7.712-.006-15.423-.024-7.862-.014-15.724-.02-15.438-.016-30.877-.049c1.253-2.696 2.363-4.411 4.375-6.687 7.434-8.943 7.229-18.507 7.234-29.598q.023-2.503.05-5.006c.044-4.365.064-8.73.08-13.094.019-4.465.06-8.93.1-13.394.076-8.74.126-17.48.161-26.221M796 304q12.375-.141 24.751-.207c3.833-.021 7.665-.05 11.497-.095 3.71-.044 7.418-.067 11.127-.078a407 407 0 0 0 4.213-.043c15.125-.226 27.162 2.88 38.408 13.267 7.662 8.04 11.965 19.036 12.254 30.094-.3 12.222-4.52 20.902-12.805 29.789-6.562 6.1-13.035 8.404-21.866 8.387h-3.942l-4.246-.016-4.355-.005q-5.721-.006-11.442-.024-5.843-.014-11.684-.02-11.455-.016-22.91-.049v-2a80 80 0 0 1 3.625-2.875c8.082-6.907 11.394-16.781 12.375-27.125l.25-2.418c.72-13.78-5.55-26.857-14.527-36.984-2.722-2.525-5.793-4.426-8.965-6.336L796 306zM1975.813 333.813l2.677.04c2.17.036 4.34.09 6.51.147 3.85 20.748 3.85 20.748 2 30h70v-9c.114-1.827.254-3.652.438-5.473l.273-2.783.289-2.807c.095-.96.19-1.921.29-2.912q.349-3.513.71-7.025c2.896-.081 5.79-.14 8.688-.187l2.474-.077c4.804-.058 7.927.151 11.838 3.264 3.547 4.054 4.125 7.377 4.114 12.665v3.518l-.016 3.797-.005 3.889q-.006 5.112-.024 10.224-.014 5.217-.02 10.436-.016 10.236-.049 20.471l-1.581-.857c-6.285-3.133-11.487-3.713-18.443-3.645l-3.226-.016c-3.494-.013-6.987.004-10.48.022q-3.66 0-7.317-.005-7.65 0-15.3.034c-6.533.029-13.066.026-19.6.013-5.031-.007-10.063.001-15.094.014q-3.615.006-7.228 0c-3.365-.002-6.73.014-10.095.036l-3.009-.014c-5.39.058-8.87.637-13.627 3.418h-3c-1.26-3.782-1.143-7.322-1.133-11.262l-.003-2.495q0-2.627.006-5.253c.005-2.622 0-5.245-.007-7.867-.005-8.01.072-16.016.457-24.018l.173-3.733c.693-4.61 2.086-8.095 5.581-11.235 4.264-1.657 8.21-1.456 12.738-1.325M1492 346c14.871 1.771 26.36 5.55 36.11 17.61 7.466 11.04 10.26 22.109 8.89 35.39-2.291 11.226-8.634 23.1-18 30-14.05 8.199-26.636 11.218-42.73 7.094-11.491-3.844-20.933-11.376-26.645-22.156A95 95 0 0 1 1448 410l-.898-2.25c-1.759-4.775-2.426-8.672-2.102-13.75 6.286-2.429 6.286-2.429 10-1l1 6-6 1 2 5 9-4-1-11 2.125-1.285c10.77-6.658 17.423-12.764 23.875-23.715l2-3c2.164-.293 2.164-.293 4.625-.187l2.477.082L1497 362a98 98 0 0 0 4-9l-4-1-2 6-4-2z"/>
    <path fill="currentColor" d="M139.5 291.75c6.38 5.519 10.321 10.806 11.5 19.25.084 2.245.118 4.493.114 6.74v1.953c0 2.11-.008 4.22-.016 6.33l-.005 4.414q-.006 5.785-.024 11.57-.014 5.912-.02 11.825-.016 11.584-.049 23.168c-2.895-1.402-5.25-2.908-7.75-4.937-7.975-5.986-15.314-7.084-25.25-6.063-7.662 1.605-12.756 4.965-18.32 10.39C98 378 98 378 97 378q-.176-13.431-.26-26.862c-.025-4.16-.06-8.318-.117-12.476-.055-4.02-.084-8.04-.097-12.06q-.014-2.29-.055-4.581c-.182-10.662.904-18.566 7.966-26.896 10.106-8.38 23.472-11.7 35.063-3.375"/>
    <path fill="currentColor" d="M492.86 283.203c7.339 6.161 11.403 13.71 13.015 23.047.78 9.626-2.729 18.486-8.875 25.75-5.997 6.629-12.887 10.161-21.762 11.379-9.426.417-18.136-2.675-25.453-8.61-6.298-6.243-9.963-13.549-10.166-22.478.032-11.243 2.17-18.944 10.03-27.244 13.265-11.547 29.088-11.818 43.21-1.844M1201.938 342.188l2.65.501c2.143.41 4.278.857 6.412 1.311-.492 4.167-1.164 6.797-3.812 10.063l-1.52 1.91L1204 358l-1.922 2.516c-2.026 2.422-4.027 4.237-6.515 6.171l-2.668 2.075L1190 371l-3.05 2.457c-10.355 8.287-21.514 14.571-33.513 20.168l-2.309 1.114c-5.359 2.412-5.359 2.412-8.577 1.78-.842-.5-1.684-1.002-2.551-1.519q-2.13-1.11-4.266-2.215c-19.101-10.354-36.84-22.49-54.734-34.785 6.356-6.451 6.356-6.451 10-8 4.83 1.399 8.975 4.332 13.188 7l2.193 1.367c5.351 3.365 5.351 3.365 7.619 5.633l2.656.863c4.607 1.566 8.61 3.991 12.778 6.479 4.432 2.497 6.69 2.869 11.566 1.658 4.596-1.993 8.971-4.428 13.375-6.812l1.892-1.016c9.041-4.867 17.532-10.124 25.534-16.586l1.611-1.285a75 75 0 0 0 3.205-2.787c5.123-4.343 8.994-3.707 15.32-2.327M1972.56 402.746l2.758-.017 3.003.012 3.179-.01c3.47-.01 6.94-.003 10.41.003l7.226-.005q7.572-.005 15.144.01c6.479.012 12.957.005 19.437-.007q7.459-.009 14.918 0 3.585.003 7.169-.005c3.335-.005 6.67.003 10.005.014l3.008-.012 2.75.017 2.388.002C2076 403 2076 403 2079 405c.248 2.934.326 5.636.25 8.563l-.016 2.404c-.08 5.879-.08 5.879-1.234 7.033a67 67 0 0 1-4.403.127l-2.881.009-3.187-.007-3.335.006q-5.488.004-10.975-.002l-7.59.003q-7.964.002-15.928-.006-9.22-.006-18.44.002-8.855.007-17.708.002-3.776 0-7.55.002-5.267.003-10.532-.007l-3.187.007-2.88-.009-2.519-.001C1965 423 1965 423 1964 422c-.073-2.863-.092-5.7-.062-8.562l.013-2.444q.02-2.997.049-5.994c2.987-1.714 5.128-2.25 8.56-2.254M137 374c6.856 4.795 11.478 10.04 13.559 18.188 1.213 7.204-.884 12.809-4.371 19.062-5.242 6.589-10.967 9.892-19.188 11.75-7.143.408-12.998-1.182-19-5l-2.687-1.687c-5.29-5.29-8.07-11.668-8.563-19.063.18-8.108 3.594-13.429 9.059-19.266 8.7-7.878 20.764-9.268 31.191-3.984M489.875 346.75C492 348 492 348 494 350c.125 2.25.125 2.25-1 5-1.645 1.309-1.645 1.309-3.687 2.688-7.462 5.201-11.995 14.526-13.711 23.363-.244 1.644-.43 3.296-.602 4.949h-5l-.664-2.71C466.008 370.597 461.38 362.257 451 354c1.572-3.316 2.649-5.279 6-7 2.337.304 4.67.643 7 1 13.699.625 13.699.625 19.625-1.125C487 346 487 346 489.875 346.75M1739 317h8v94l-7 1c-1.197-4.264-1.132-8.41-1.114-12.808v-2.691c0-2.933.009-5.865.016-8.798l.005-6.103q.006-8.03.024-16.059.014-8.195.02-16.389.016-16.076.049-32.152M1775 317h7q.2 11.01.391 22.018.09 5.117.182 10.235c.262 14.452.479 28.902.52 43.356l.02 3.523.002 3.273.006 2.847c-.131 2.98-.576 5.817-1.121 8.748-2 .043-4 .04-6 0-1.867-1.867-1.12-4.543-1.124-7.026l.01-2.625V398.6c0-3.014.009-6.028.016-9.041l.005-6.251q.006-8.244.024-16.488.014-8.405.02-16.81.016-16.506.049-33.01M1704 317h7v95l-7-1z"/>
    <path fill="currentColor" d="M129 384c4.128 1.876 5.62 3.363 7.938 7.25 1.33 4.694 1.208 7.012.062 11.75-2.232 3.54-4.162 5.423-8 7-4.935.7-8.912.515-13.437-1.625-3.437-3.185-5.452-5.766-5.657-10.586.335-5.038 1.31-8.22 5.094-11.789 4.492-2.71 8.893-2.637 14-2"/>
    <path fill="currentColor" d="m2093 345 4 1v63h-12v-3l6-2 .031-2.195q.146-10.22.308-20.44.084-5.254.158-10.51c.057-4.023.122-8.046.187-12.07l.05-3.829.06-3.518.048-3.116C2092 346 2092 346 2093 345M1784 418c3.025 2.06 4.67 3.516 5.48 7.156.273 4.42-.04 6.289-2.855 9.844-3.815 2.907-5.812 3.463-10.625 3-3.2-1.477-5.328-2.64-6.926-5.871-1.1-3.568-1.364-5.443.113-8.942 4.592-5.54 7.432-6.969 14.813-5.187M1712 418c3.502 2.588 4.775 4.271 6.063 8.438-.078 4.443-1.19 6.223-4.063 9.562-3.204 2.35-6.103 2.546-10 2-3.33-2.01-5.37-3.263-6.703-6.937-.603-3.461-.488-5.585.828-8.875 4.237-4.944 7.537-5.999 13.875-4.188M1748 418c3.21 2.443 4.699 4.115 6 7.938 0 3.872-.857 5.848-3 9.062-2.695 2.186-4.522 2.919-7.937 3.5-4.313-.704-5.952-2.46-9.063-5.5-1.743-3.486-.864-7.295 0-11 3.934-5.245 7.834-5.488 14-4M1947 346h5l1 59 5 1v3h-11zM1712 291c3.502 2.588 4.775 4.271 6.063 8.438-.078 4.443-1.19 6.223-4.063 9.562-2.623 2.155-4.73 2.111-8 1.875-2.726-.452-4.06-.913-6.437-2.437-2.177-3.395-2.763-6.421-2.563-10.438 1.286-3.215 2.604-4.67 5.25-6.875 3.755-1.536 5.867-1.234 9.75-.125M1784 291c3.579 3.122 5.29 5.286 5.625 10.063-.625 3.937-.625 3.937-2.687 6.875-3.536 2.482-5.625 3.062-9.938 3.062-4.313-1.327-5.655-2.428-8-6.312-1.15-4.243-.98-5.814 1-9.688 4.214-5.03 7.678-5.635 14-4M1749 292c2.566 1.958 3.73 3.332 4.938 6.313.09 3.885-1.063 6.312-2.938 9.687-2.299 2.102-3.819 2.902-6.926 3.16-4.12-.194-5.868-.992-9.137-3.66-1.945-2.731-2.243-4.798-2.062-8.125.594-3.395 1.033-4.278 3.5-6.875 4.95-2.829 7.322-2.454 12.625-.5M127 390c2.373 1.796 3.646 3.269 4.938 5.938.096 3.177-.95 4.626-2.938 7.062-2.812 1.563-2.812 1.563-6 2-3.537-1.668-5.48-2.808-7.062-6.437.08-3.304 1.098-4.944 3.062-7.563 2.84-1.42 4.855-1.315 8-1"/>
  </symbol>
  <symbol id="scw-cotton" viewBox="382 268 182 184">
    <path fill="currentColor" d="m783.973 297.566 6.999-.015q7.309-.013 14.617.003c6.223.011 12.445-.009 18.667-.038 4.812-.018 9.624-.018 14.436-.012q3.44 0 6.881-.019c3.213-.015 6.425-.004 9.638.013l2.827-.029c12.183.135 23.23 5.474 32.22 13.562 7.006 7.353 12.237 16.85 13.742 26.969l.438 2.664c1.475 11.649-.946 23.473-7.438 33.336-3.398 4.269-7.127 8.164-11 12l2.625.25c4.918 1.093 8.002 3.454 11.625 6.875 3.15 5.174 4.394 11.062 3.25 17.063-1.71 5.416-5.193 9.324-9.91 12.367-4.985 2.007-9.525 2.01-14.86 2.113l-3.62.098c-18.715.446-37.44.495-56.159.53-5.557.01-11.115.045-16.673.084-4.347.027-8.694.035-13.042.038q-3.073.008-6.145.035c-21.273.184-42.008-2.657-58.036-18.14-12.866-14.48-18.681-31.082-18.367-50.41 1.446-18.069 9.936-33.91 23.562-45.653 16.766-13.09 33.341-13.719 53.723-13.684M144.508 286.695c6.486 5.287 9.874 11.452 12.492 19.305.228 2.733.417 5.45.563 8.188l.13 2.271q.158 2.77.307 5.541l3.03.031q14.106.147 28.21.308 7.252.084 14.505.158 6.993.072 13.986.156 2.673.031 5.348.056 3.732.037 7.464.086l2.256.017c5.087.074 5.087.074 6.201 1.188.097 1.351.126 2.707.127 4.062l.009 2.651-.007 2.932.006 3.069q.004 5.049-.002 10.099l.003 6.983q.001 7.329-.006 14.658-.006 9.418.004 18.836.005 7.214 0 14.427 0 3.474.002 6.947.003 4.846-.007 9.691l.007 2.932-.009 2.651-.001 2.318C239 428 239 428 238 429a73 73 0 0 1-4.609.14l-3.02.018-3.341.003-3.499.015q-5.764.021-11.527.027l-5.975.013q-8.337.018-16.673.023-10.761.007-21.522.05-8.325.034-16.65.034-4.966 0-9.934.025c-3.705.017-7.41.015-11.115.008l-3.287.028C115.761 429.324 106.991 426.93 99 419c-6.308-7.767-8.297-14.715-8.322-24.579l-.03-2.87c-.03-3.124-.043-6.247-.054-9.371l-.035-6.547q-.029-6.863-.04-13.724c-.01-5.837-.058-11.673-.115-17.51-.038-4.51-.048-9.019-.051-13.528q-.009-3.226-.049-6.451c-.272-23.864-.272-23.864 8.972-33.888 12.128-11.75 31.166-13.345 45.232-3.837M495.492 276.504c8.086 5.649 13.662 14.22 16.067 23.777 2.043 12.588-.096 23.685-7.434 34.219-2.922 3.591-6.239 6.013-10.125 8.5.313 1.875.313 1.875 1 4 3.278 2.185 3.852 2.206 7.57 1.906l2.72-.183q2.8-.22 5.6-.446c12.422-.831 21.364 2.533 30.86 10.536 8.354 7.786 12.187 16.672 12.655 28.09.116 7.4-.733 13.575-4.405 20.097l-1.32 2.36c-6.074 9.89-13.742 14.99-24.68 18.64-11.08 2.625-22.073.422-31.805-5.437-8.596-6.119-14.689-13.738-16.715-24.262-.246-2.092-.377-4.197-.48-6.301h-5l-.125 3.25c-1.027 8.232-5.535 16.466-11.875 21.75l-1.738 1.703c-7.795 7.435-17.151 10.714-27.93 10.508-12.266-1.11-21.131-6.227-29.543-15.008-6.628-8.162-9.331-17.905-9.101-28.277 1.199-11.226 6.463-21.996 15.062-29.301 8.692-6.48 18.387-9.51 29.25-8.625q3.096.68 6.188 1.375c5.253.983 5.253.983 7.69-.578 1.372-1.672 1.372-1.672 3.122-4.797l-1.977-1.617c-9.143-7.795-15.271-15.884-16.359-28.18-.134-13.6 2.743-23.395 12.406-33.332 14.496-13.713 33.67-14.477 50.422-4.367"/>
    <path fill="currentColor" d="M528.95 357.684 531 359l2.332 1.473c7.757 5.441 12.987 13.116 14.668 22.527 1 8.914-.764 17.429-5.988 24.809-6.796 7.898-14.129 13.573-24.801 14.41-11.31.343-18.937-2.444-27.211-10.219-7.461-7.982-9.582-16.123-9.281-26.926.383-4.187 1.286-7.389 3.281-11.074l1.148-2.203c4.322-7.344 10.869-12.727 18.739-15.996 8.103-2.085 17.582-2.16 25.062 1.883M444.625 357.559c9.01 5.468 14.912 12.46 18.375 22.441 2.155 9.563.822 17.346-4.187 25.688-5.242 7.753-11.66 13.049-20.665 15.898-9.933 1.914-17.848.343-26.265-4.906-7.167-4.95-13.157-11.965-14.883-20.68-.985-10.059-.165-19.094 5.766-27.504 10.393-12.418 26.437-18.217 41.859-10.937"/>
    <path fill="currentColor" d="M492.86 283.203c7.339 6.161 11.403 13.71 13.015 23.047.78 9.626-2.729 18.486-8.875 25.75-5.997 6.629-12.887 10.161-21.762 11.379-9.426.417-18.136-2.675-25.453-8.61-6.298-6.243-9.963-13.549-10.166-22.478.032-11.243 2.17-18.944 10.03-27.244 13.265-11.547 29.088-11.818 43.21-1.844M1201.938 342.188l2.65.501c2.143.41 4.278.857 6.412 1.311-.492 4.167-1.164 6.797-3.812 10.063l-1.52 1.91L1204 358l-1.922 2.516c-2.026 2.422-4.027 4.237-6.515 6.171l-2.668 2.075L1190 371l-3.05 2.457c-10.355 8.287-21.514 14.571-33.513 20.168l-2.309 1.114c-5.359 2.412-5.359 2.412-8.577 1.78-.842-.5-1.684-1.002-2.551-1.519q-2.13-1.11-4.266-2.215c-19.101-10.354-36.84-22.49-54.734-34.785 6.356-6.451 6.356-6.451 10-8 4.83 1.399 8.975 4.332 13.188 7l2.193 1.367c5.351 3.365 5.351 3.365 7.619 5.633l2.656.863c4.607 1.566 8.61 3.991 12.778 6.479 4.432 2.497 6.69 2.869 11.566 1.658 4.596-1.993 8.971-4.428 13.375-6.812l1.892-1.016c9.041-4.867 17.532-10.124 25.534-16.586l1.611-1.285a75 75 0 0 0 3.205-2.787c5.123-4.343 8.994-3.707 15.32-2.327M1972.56 402.746l2.758-.017 3.003.012 3.179-.01c3.47-.01 6.94-.003 10.41.003l7.226-.005q7.572-.005 15.144.01c6.479.012 12.957.005 19.437-.007q7.459-.009 14.918 0 3.585.003 7.169-.005c3.335-.005 6.67.003 10.005.014l3.008-.012 2.75.017 2.388.002C2076 403 2076 403 2079 405c.248 2.934.326 5.636.25 8.563l-.016 2.404c-.08 5.879-.08 5.879-1.234 7.033a67 67 0 0 1-4.403.127l-2.881.009-3.187-.007-3.335.006q-5.488.004-10.975-.002l-7.59.003q-7.964.002-15.928-.006-9.22-.006-18.44.002-8.855.007-17.708.002-3.776 0-7.55.002-5.267.003-10.532-.007l-3.187.007-2.88-.009-2.519-.001C1965 423 1965 423 1964 422c-.073-2.863-.092-5.7-.062-8.562l.013-2.444q.02-2.997.049-5.994c2.987-1.714 5.128-2.25 8.56-2.254M137 374c6.856 4.795 11.478 10.04 13.559 18.188 1.213 7.204-.884 12.809-4.371 19.062-5.242 6.589-10.967 9.892-19.188 11.75-7.143.408-12.998-1.182-19-5l-2.687-1.687c-5.29-5.29-8.07-11.668-8.563-19.063.18-8.108 3.594-13.429 9.059-19.266 8.7-7.878 20.764-9.268 31.191-3.984M489.875 346.75C492 348 492 348 494 350c.125 2.25.125 2.25-1 5-1.645 1.309-1.645 1.309-3.687 2.688-7.462 5.201-11.995 14.526-13.711 23.363-.244 1.644-.43 3.296-.602 4.949h-5l-.664-2.71C466.008 370.597 461.38 362.257 451 354c1.572-3.316 2.649-5.279 6-7 2.337.304 4.67.643 7 1 13.699.625 13.699.625 19.625-1.125C487 346 487 346 489.875 346.75M1739 317h8v94l-7 1c-1.197-4.264-1.132-8.41-1.114-12.808v-2.691c0-2.933.009-5.865.016-8.798l.005-6.103q.006-8.03.024-16.059.014-8.195.02-16.389.016-16.076.049-32.152M1775 317h7q.2 11.01.391 22.018.09 5.117.182 10.235c.262 14.452.479 28.902.52 43.356l.02 3.523.002 3.273.006 2.847c-.131 2.98-.576 5.817-1.121 8.748-2 .043-4 .04-6 0-1.867-1.867-1.12-4.543-1.124-7.026l.01-2.625V398.6c0-3.014.009-6.028.016-9.041l.005-6.251q.006-8.244.024-16.488.014-8.405.02-16.81.016-16.506.049-33.01M1704 317h7v95l-7-1z"/>
  </symbol>
  <symbol id="scw-yarn" viewBox="678 268 250 184">
    <path fill="currentColor" d="m783.973 297.566 6.999-.015q7.309-.013 14.617.003c6.223.011 12.445-.009 18.667-.038 4.812-.018 9.624-.018 14.436-.012q3.44 0 6.881-.019c3.213-.015 6.425-.004 9.638.013l2.827-.029c12.183.135 23.23 5.474 32.22 13.562 7.006 7.353 12.237 16.85 13.742 26.969l.438 2.664c1.475 11.649-.946 23.473-7.438 33.336-3.398 4.269-7.127 8.164-11 12l2.625.25c4.918 1.093 8.002 3.454 11.625 6.875 3.15 5.174 4.394 11.062 3.25 17.063-1.71 5.416-5.193 9.324-9.91 12.367-4.985 2.007-9.525 2.01-14.86 2.113l-3.62.098c-18.715.446-37.44.495-56.159.53-5.557.01-11.115.045-16.673.084-4.347.027-8.694.035-13.042.038q-3.073.008-6.145.035c-21.273.184-42.008-2.657-58.036-18.14-12.866-14.48-18.681-31.082-18.367-50.41 1.446-18.069 9.936-33.91 23.562-45.653 16.766-13.09 33.341-13.719 53.723-13.684M144.508 286.695c6.486 5.287 9.874 11.452 12.492 19.305.228 2.733.417 5.45.563 8.188l.13 2.271q.158 2.77.307 5.541l3.03.031q14.106.147 28.21.308 7.252.084 14.505.158 6.993.072 13.986.156 2.673.031 5.348.056 3.732.037 7.464.086l2.256.017c5.087.074 5.087.074 6.201 1.188.097 1.351.126 2.707.127 4.062l.009 2.651-.007 2.932.006 3.069q.004 5.049-.002 10.099l.003 6.983q.001 7.329-.006 14.658-.006 9.418.004 18.836.005 7.214 0 14.427 0 3.474.002 6.947.003 4.846-.007 9.691l.007 2.932-.009 2.651-.001 2.318C239 428 239 428 238 429a73 73 0 0 1-4.609.14l-3.02.018-3.341.003-3.499.015q-5.764.021-11.527.027l-5.975.013q-8.337.018-16.673.023-10.761.007-21.522.05-8.325.034-16.65.034-4.966 0-9.934.025c-3.705.017-7.41.015-11.115.008l-3.287.028C115.761 429.324 106.991 426.93 99 419c-6.308-7.767-8.297-14.715-8.322-24.579l-.03-2.87c-.03-3.124-.043-6.247-.054-9.371l-.035-6.547q-.029-6.863-.04-13.724c-.01-5.837-.058-11.673-.115-17.51-.038-4.51-.048-9.019-.051-13.528q-.009-3.226-.049-6.451c-.272-23.864-.272-23.864 8.972-33.888 12.128-11.75 31.166-13.345 45.232-3.837M495.492 276.504c8.086 5.649 13.662 14.22 16.067 23.777 2.043 12.588-.096 23.685-7.434 34.219-2.922 3.591-6.239 6.013-10.125 8.5.313 1.875.313 1.875 1 4 3.278 2.185 3.852 2.206 7.57 1.906l2.72-.183q2.8-.22 5.6-.446c12.422-.831 21.364 2.533 30.86 10.536 8.354 7.786 12.187 16.672 12.655 28.09.116 7.4-.733 13.575-4.405 20.097l-1.32 2.36c-6.074 9.89-13.742 14.99-24.68 18.64-11.08 2.625-22.073.422-31.805-5.437-8.596-6.119-14.689-13.738-16.715-24.262-.246-2.092-.377-4.197-.48-6.301h-5l-.125 3.25c-1.027 8.232-5.535 16.466-11.875 21.75l-1.738 1.703c-7.795 7.435-17.151 10.714-27.93 10.508-12.266-1.11-21.131-6.227-29.543-15.008-6.628-8.162-9.331-17.905-9.101-28.277 1.199-11.226 6.463-21.996 15.062-29.301 8.692-6.48 18.387-9.51 29.25-8.625q3.096.68 6.188 1.375c5.253.983 5.253.983 7.69-.578 1.372-1.672 1.372-1.672 3.122-4.797l-1.977-1.617c-9.143-7.795-15.271-15.884-16.359-28.18-.134-13.6 2.743-23.395 12.406-33.332 14.496-13.713 33.67-14.477 50.422-4.367"/>
    <path fill="currentColor" d="M798.426 314.738c9.808 8.618 15.665 19.266 16.847 32.27.335 10.279-2.072 18.56-8.773 26.492a130 130 0 0 1-3.5 3.5l-2.312 2.25c-9.306 6.06-18.81 7.095-29.688 5.75-3.38-.887-6.084-2.092-9-4l-2.75-1.75c-5.622-5.622-9.191-12.51-9.625-20.5.21-6.583 2.069-12.22 6.54-17.125 5.686-5.187 9.5-6.996 17.198-6.906 5.308.566 9.109 2.703 12.785 6.5 2.185 3.282 2.63 5.7 3.102 9.594.15 1.16.3 2.322.453 3.519L790 357h5c1.624-6.791.473-12.767-3.07-18.832-3.721-4.867-8.937-7.996-14.93-9.168-8.458-.868-14.99.018-22 5-6.755 5.73-10.182 13.04-11.379 21.762-.414 9.359 2.639 18.182 8.55 25.453 8.94 8.729 19.342 10.094 31.259 9.993l3.393-.004q3.63-.005 7.261-.021c3.834-.015 7.668-.014 11.501-.007 10.897.02 21.794.026 32.69-.021 6.675-.03 13.35-.022 20.024.007q3.81.006 7.617-.026a716 716 0 0 1 10.654.01l3.162-.058c6.542.101 10.021 1.463 14.798 5.965 2.12 2.809 2.694 5.325 2.77 8.806-.66 4.697-3.29 7.243-6.705 10.278-4.716 3.026-10.149 2.411-15.56 2.365l-3.64.016q-4.924.013-9.85-.014c-3.449-.014-6.899-.007-10.348-.003q-8.7.002-17.396-.034c-6.677-.027-13.353-.029-20.03-.017q-9.672.013-19.343-.01a2132 2132 0 0 0-8.193 0c-3.831.002-7.662-.014-11.493-.036l-3.383.014c-15.882-.149-28.556-5.122-40.078-16.078-11.327-11.619-17.15-25.035-17.593-41.215.287-15.629 6.39-29.9 17.312-41.125 19.797-17.323 45.845-21.916 67.426-5.262"/>
    <path fill="currentColor" d="M157 329q14.642-.034 29.285-.052 6.798-.007 13.596-.023 6.555-.016 13.11-.02 2.508-.003 5.014-.01 3.498-.01 6.997-.009l2.114-.01c4.77.01 4.77.01 5.884 1.124.1 2.856.136 5.687.13 8.543l.003 11.644q0 3.09.003 6.177.001 6.482-.006 12.963-.006 8.329.004 16.657.005 6.38 0 12.76 0 3.07.002 6.143.003 4.285-.007 8.57l.007 2.591c-.022 5.838-.022 5.838-1.136 6.952-2.708.095-5.391.126-8.1.114h-2.572c-2.819 0-5.638-.009-8.457-.016l-5.847-.005q-7.712-.006-15.423-.024-7.862-.014-15.724-.02-15.438-.016-30.877-.049c1.253-2.696 2.363-4.411 4.375-6.687 7.434-8.943 7.229-18.507 7.234-29.598q.023-2.503.05-5.006c.044-4.365.064-8.73.08-13.094.019-4.465.06-8.93.1-13.394.076-8.74.126-17.48.161-26.221M796 304q12.375-.141 24.751-.207c3.833-.021 7.665-.05 11.497-.095 3.71-.044 7.418-.067 11.127-.078a407 407 0 0 0 4.213-.043c15.125-.226 27.162 2.88 38.408 13.267 7.662 8.04 11.965 19.036 12.254 30.094-.3 12.222-4.52 20.902-12.805 29.789-6.562 6.1-13.035 8.404-21.866 8.387h-3.942l-4.246-.016-4.355-.005q-5.721-.006-11.442-.024-5.843-.014-11.684-.02-11.455-.016-22.91-.049v-2a80 80 0 0 1 3.625-2.875c8.082-6.907 11.394-16.781 12.375-27.125l.25-2.418c.72-13.78-5.55-26.857-14.527-36.984-2.722-2.525-5.793-4.426-8.965-6.336L796 306zM1975.813 333.813l2.677.04c2.17.036 4.34.09 6.51.147 3.85 20.748 3.85 20.748 2 30h70v-9c.114-1.827.254-3.652.438-5.473l.273-2.783.289-2.807c.095-.96.19-1.921.29-2.912q.349-3.513.71-7.025c2.896-.081 5.79-.14 8.688-.187l2.474-.077c4.804-.058 7.927.151 11.838 3.264 3.547 4.054 4.125 7.377 4.114 12.665v3.518l-.016 3.797-.005 3.889q-.006 5.112-.024 10.224-.014 5.217-.02 10.436-.016 10.236-.049 20.471l-1.581-.857c-6.285-3.133-11.487-3.713-18.443-3.645l-3.226-.016c-3.494-.013-6.987.004-10.48.022q-3.66 0-7.317-.005-7.65 0-15.3.034c-6.533.029-13.066.026-19.6.013-5.031-.007-10.063.001-15.094.014q-3.615.006-7.228 0c-3.365-.002-6.73.014-10.095.036l-3.009-.014c-5.39.058-8.87.637-13.627 3.418h-3c-1.26-3.782-1.143-7.322-1.133-11.262l-.003-2.495q0-2.627.006-5.253c.005-2.622 0-5.245-.007-7.867-.005-8.01.072-16.016.457-24.018l.173-3.733c.693-4.61 2.086-8.095 5.581-11.235 4.264-1.657 8.21-1.456 12.738-1.325M1492 346c14.871 1.771 26.36 5.55 36.11 17.61 7.466 11.04 10.26 22.109 8.89 35.39-2.291 11.226-8.634 23.1-18 30-14.05 8.199-26.636 11.218-42.73 7.094-11.491-3.844-20.933-11.376-26.645-22.156A95 95 0 0 1 1448 410l-.898-2.25c-1.759-4.775-2.426-8.672-2.102-13.75 6.286-2.429 6.286-2.429 10-1l1 6-6 1 2 5 9-4-1-11 2.125-1.285c10.77-6.658 17.423-12.764 23.875-23.715l2-3c2.164-.293 2.164-.293 4.625-.187l2.477.082L1497 362a98 98 0 0 0 4-9l-4-1-2 6-4-2z"/>
  </symbol>
  <symbol id="scw-fabric" viewBox="1053 268 184 184">
    <path fill="currentColor" d="M1134.848 281.304c2.695 1.3 4.81 2.838 7.152 4.696a242 242 0 0 0 5.176 2.973q2.572 1.539 5.137 3.09l2.626 1.564c11.595 6.974 11.595 6.974 13.061 11.373-1.54 1.207-1.54 1.207-4 2a54 54 0 0 1-7.375-3.312l-2.124-1.092c-5.564-2.922-10.832-6.252-15.895-9.976-1.618-1.128-1.618-1.128-4.606-2.62-4.37.859-7.929 3.814-11.562 6.313a2811 2811 0 0 1-4.004 2.707l-2.161 1.459c-4.062 2.718-8.17 5.366-12.273 8.021a1352 1352 0 0 0-20.244 13.342C1074.587 328 1074.587 328 1072 328v2l1.969.668c4.12 1.81 7.755 4.209 11.531 6.644q2.562 1.633 5.125 3.262l2.68 1.709c11.232 7.156 22.48 14.245 34.195 20.592l2.373 1.319 2.22 1.173 1.928 1.035c3.603 1.089 6.311-.092 9.626-1.63a951 951 0 0 0 9.04-5.022l3.206-1.738 3.056-1.715 2.792-1.552c2.624-2.027 3.323-3.607 4.259-6.745l2.191.2c9.565-.68 21.513-14.349 27.809-21.2 2.859-3.903 5-7.103 5-12-21.92-2.295-21.92-2.295-30.04-1.875C1169 313 1169 313 1166 311c.125-1.875.125-1.875 1-4 6.175-3.505 14.167-1.692 20.855-.484 4.537.698 9.08.835 13.663 1.002 1.832.09 3.659.278 5.482.482 2.173 4.346 1.625 9.939.246 14.484-1.867 4.364-4.097 7.933-7.246 11.516l-1 2 3.902.367 5.035.508 2.577.238 2.45.254 2.27.222L1217 338c1.542 3.083 1.61 5.677 1 9-2.809 6.956-6.584 12.982-11 19l3.902.184 5.035.253 2.577.12 2.45.127 2.27.11C1225 367 1225 367 1226 368c1.405 8.485-1.446 14.963-6 22-14.463 19.05-36.833 29.609-57.436 40.593-2.564 1.407-2.564 1.407-5.216 3.12-2.348 1.287-2.348 1.287-5.2.748-3.691-1.713-7.097-3.647-10.523-5.836l-1.941-1.172c-1.832-1.164-1.832-1.164-4.684-3.453v-4c1.563-1.246 1.563-1.246 4-2a59 59 0 0 1 7 3.938c6.402 4.144 6.402 4.144 8.956 3.793 2.128-.761 4.062-1.65 6.064-2.7l2.325-1.217 2.467-1.314 2.562-1.361c42.013-22.515 42.013-22.515 49.626-41.139a91 91 0 0 0 1-5l-2.598.035c-1.143.01-2.286.018-3.465.027l-3.609.032c-3.328-.094-3.328-.094-7.14-1.031-3.73-.074-4.085.353-6.75 2.75l-2.036 1.96c-8.923 8.27-19.322 14.232-30.336 19.232-2.13 1.026-4.147 2.175-6.191 3.362-4.816 2.631-9.552 5.203-15.168 4.24-6.048-1.955-11.353-5.245-16.707-8.607l-5.32-3.227c-5.642-3.47-11.17-7.1-16.68-10.773-4.006.316-6.637 1.91-10 4h-2c3.596 3.867 7.335 6.668 11.875 9.375 7.297 4.45 14.473 9.07 21.625 13.75L1135 415l-2 5c-6.316-.319-10.559-3.63-15.625-7.062l-2.704-1.797A1655 1655 0 0 1 1107 406q-1.723-1.147-3.45-2.29A1957 1957 0 0 1 1095 398q-4.124-2.751-8.25-5.5l-3.89-2.594L1080 388c.16-2.293.16-2.293 1-5 2.434-1.8 2.434-1.8 5.438-3.312l2.996-1.551C1092 377 1092 377 1094 377c-1.117-3.351-1.515-3.61-4.387-5.34l-2.095-1.283-2.206-1.315q-2.13-1.293-4.261-2.59l-2.072-1.253c-2.71-1.67-5.346-3.432-7.979-5.219.256-3.572.75-4.77 3.434-7.238l3.004-2.075 2.996-2.113C1083 347 1083 347 1085 347v-2l-1.988-.684c-3.994-1.745-7.534-4.033-11.2-6.378q-2.145-1.363-4.292-2.723l-1.904-1.215c-1.616-1-1.616-1-3.616-2-.402-2.206-.402-2.206 0-5 2.13-1.854 4.048-3.242 6.426-4.71l2.067-1.34a673 673 0 0 1 6.82-4.325 3926 3926 0 0 0 7.15-4.562 2369 2369 0 0 1 4.963-3.162c5.886-3.759 11.629-7.688 17.34-11.706q3.513-2.436 7.032-4.864a305 305 0 0 0 4.484-3.19c11.568-8.37 11.568-8.37 16.566-7.837"/>
    <path fill="currentColor" d="M492.86 283.203c7.339 6.161 11.403 13.71 13.015 23.047.78 9.626-2.729 18.486-8.875 25.75-5.997 6.629-12.887 10.161-21.762 11.379-9.426.417-18.136-2.675-25.453-8.61-6.298-6.243-9.963-13.549-10.166-22.478.032-11.243 2.17-18.944 10.03-27.244 13.265-11.547 29.088-11.818 43.21-1.844M1201.938 342.188l2.65.501c2.143.41 4.278.857 6.412 1.311-.492 4.167-1.164 6.797-3.812 10.063l-1.52 1.91L1204 358l-1.922 2.516c-2.026 2.422-4.027 4.237-6.515 6.171l-2.668 2.075L1190 371l-3.05 2.457c-10.355 8.287-21.514 14.571-33.513 20.168l-2.309 1.114c-5.359 2.412-5.359 2.412-8.577 1.78-.842-.5-1.684-1.002-2.551-1.519q-2.13-1.11-4.266-2.215c-19.101-10.354-36.84-22.49-54.734-34.785 6.356-6.451 6.356-6.451 10-8 4.83 1.399 8.975 4.332 13.188 7l2.193 1.367c5.351 3.365 5.351 3.365 7.619 5.633l2.656.863c4.607 1.566 8.61 3.991 12.778 6.479 4.432 2.497 6.69 2.869 11.566 1.658 4.596-1.993 8.971-4.428 13.375-6.812l1.892-1.016c9.041-4.867 17.532-10.124 25.534-16.586l1.611-1.285a75 75 0 0 0 3.205-2.787c5.123-4.343 8.994-3.707 15.32-2.327M1972.56 402.746l2.758-.017 3.003.012 3.179-.01c3.47-.01 6.94-.003 10.41.003l7.226-.005q7.572-.005 15.144.01c6.479.012 12.957.005 19.437-.007q7.459-.009 14.918 0 3.585.003 7.169-.005c3.335-.005 6.67.003 10.005.014l3.008-.012 2.75.017 2.388.002C2076 403 2076 403 2079 405c.248 2.934.326 5.636.25 8.563l-.016 2.404c-.08 5.879-.08 5.879-1.234 7.033a67 67 0 0 1-4.403.127l-2.881.009-3.187-.007-3.335.006q-5.488.004-10.975-.002l-7.59.003q-7.964.002-15.928-.006-9.22-.006-18.44.002-8.855.007-17.708.002-3.776 0-7.55.002-5.267.003-10.532-.007l-3.187.007-2.88-.009-2.519-.001C1965 423 1965 423 1964 422c-.073-2.863-.092-5.7-.062-8.562l.013-2.444q.02-2.997.049-5.994c2.987-1.714 5.128-2.25 8.56-2.254M137 374c6.856 4.795 11.478 10.04 13.559 18.188 1.213 7.204-.884 12.809-4.371 19.062-5.242 6.589-10.967 9.892-19.188 11.75-7.143.408-12.998-1.182-19-5l-2.687-1.687c-5.29-5.29-8.07-11.668-8.563-19.063.18-8.108 3.594-13.429 9.059-19.266 8.7-7.878 20.764-9.268 31.191-3.984M489.875 346.75C492 348 492 348 494 350c.125 2.25.125 2.25-1 5-1.645 1.309-1.645 1.309-3.687 2.688-7.462 5.201-11.995 14.526-13.711 23.363-.244 1.644-.43 3.296-.602 4.949h-5l-.664-2.71C466.008 370.597 461.38 362.257 451 354c1.572-3.316 2.649-5.279 6-7 2.337.304 4.67.643 7 1 13.699.625 13.699.625 19.625-1.125C487 346 487 346 489.875 346.75M1739 317h8v94l-7 1c-1.197-4.264-1.132-8.41-1.114-12.808v-2.691c0-2.933.009-5.865.016-8.798l.005-6.103q.006-8.03.024-16.059.014-8.195.02-16.389.016-16.076.049-32.152M1775 317h7q.2 11.01.391 22.018.09 5.117.182 10.235c.262 14.452.479 28.902.52 43.356l.02 3.523.002 3.273.006 2.847c-.131 2.98-.576 5.817-1.121 8.748-2 .043-4 .04-6 0-1.867-1.867-1.12-4.543-1.124-7.026l.01-2.625V398.6c0-3.014.009-6.028.016-9.041l.005-6.251q.006-8.244.024-16.488.014-8.405.02-16.81.016-16.506.049-33.01M1704 317h7v95l-7-1z"/>
  </symbol>
  <symbol id="scw-pad" viewBox="1372 268 180 184">
    <path fill="currentColor" d="M1467.3 296.215c11.922 7.884 20.156 18.862 23.7 32.785.539 3.666.857 7.298 1 11l3.188-.25c13.164.023 25.133 6.994 34.453 15.734 10.028 10.693 14.79 24.17 14.57 38.715-1.197 15.898-8.437 28.113-20.215 38.582-12.624 9.998-26.218 12.628-41.996 11.219-14.255-2.432-26.077-9.651-34.684-21.273-5.572-8.589-9.124-18.426-8.316-28.727-.536.03-.536.03-3.25.188-12.545-.089-25.94-5.668-35.07-14.297-11.157-12.559-16.708-26.22-16.098-43.067 1.534-14.037 8.115-26.234 18.418-35.824 18.723-14.398 43.761-16.71 64.3-4.785"/>
    <path fill="currentColor" d="M157 329q14.642-.034 29.285-.052 6.798-.007 13.596-.023 6.555-.016 13.11-.02 2.508-.003 5.014-.01 3.498-.01 6.997-.009l2.114-.01c4.77.01 4.77.01 5.884 1.124.1 2.856.136 5.687.13 8.543l.003 11.644q0 3.09.003 6.177.001 6.482-.006 12.963-.006 8.329.004 16.657.005 6.38 0 12.76 0 3.07.002 6.143.003 4.285-.007 8.57l.007 2.591c-.022 5.838-.022 5.838-1.136 6.952-2.708.095-5.391.126-8.1.114h-2.572c-2.819 0-5.638-.009-8.457-.016l-5.847-.005q-7.712-.006-15.423-.024-7.862-.014-15.724-.02-15.438-.016-30.877-.049c1.253-2.696 2.363-4.411 4.375-6.687 7.434-8.943 7.229-18.507 7.234-29.598q.023-2.503.05-5.006c.044-4.365.064-8.73.08-13.094.019-4.465.06-8.93.1-13.394.076-8.74.126-17.48.161-26.221M796 304q12.375-.141 24.751-.207c3.833-.021 7.665-.05 11.497-.095 3.71-.044 7.418-.067 11.127-.078a407 407 0 0 0 4.213-.043c15.125-.226 27.162 2.88 38.408 13.267 7.662 8.04 11.965 19.036 12.254 30.094-.3 12.222-4.52 20.902-12.805 29.789-6.562 6.1-13.035 8.404-21.866 8.387h-3.942l-4.246-.016-4.355-.005q-5.721-.006-11.442-.024-5.843-.014-11.684-.02-11.455-.016-22.91-.049v-2a80 80 0 0 1 3.625-2.875c8.082-6.907 11.394-16.781 12.375-27.125l.25-2.418c.72-13.78-5.55-26.857-14.527-36.984-2.722-2.525-5.793-4.426-8.965-6.336L796 306zM1975.813 333.813l2.677.04c2.17.036 4.34.09 6.51.147 3.85 20.748 3.85 20.748 2 30h70v-9c.114-1.827.254-3.652.438-5.473l.273-2.783.289-2.807c.095-.96.19-1.921.29-2.912q.349-3.513.71-7.025c2.896-.081 5.79-.14 8.688-.187l2.474-.077c4.804-.058 7.927.151 11.838 3.264 3.547 4.054 4.125 7.377 4.114 12.665v3.518l-.016 3.797-.005 3.889q-.006 5.112-.024 10.224-.014 5.217-.02 10.436-.016 10.236-.049 20.471l-1.581-.857c-6.285-3.133-11.487-3.713-18.443-3.645l-3.226-.016c-3.494-.013-6.987.004-10.48.022q-3.66 0-7.317-.005-7.65 0-15.3.034c-6.533.029-13.066.026-19.6.013-5.031-.007-10.063.001-15.094.014q-3.615.006-7.228 0c-3.365-.002-6.73.014-10.095.036l-3.009-.014c-5.39.058-8.87.637-13.627 3.418h-3c-1.26-3.782-1.143-7.322-1.133-11.262l-.003-2.495q0-2.627.006-5.253c.005-2.622 0-5.245-.007-7.867-.005-8.01.072-16.016.457-24.018l.173-3.733c.693-4.61 2.086-8.095 5.581-11.235 4.264-1.657 8.21-1.456 12.738-1.325M1492 346c14.871 1.771 26.36 5.55 36.11 17.61 7.466 11.04 10.26 22.109 8.89 35.39-2.291 11.226-8.634 23.1-18 30-14.05 8.199-26.636 11.218-42.73 7.094-11.491-3.844-20.933-11.376-26.645-22.156A95 95 0 0 1 1448 410l-.898-2.25c-1.759-4.775-2.426-8.672-2.102-13.75 6.286-2.429 6.286-2.429 10-1l1 6-6 1 2 5 9-4-1-11 2.125-1.285c10.77-6.658 17.423-12.764 23.875-23.715l2-3c2.164-.293 2.164-.293 4.625-.187l2.477.082L1497 362a98 98 0 0 0 4-9l-4-1-2 6-4-2z"/>
    <path fill="currentColor" d="M1467.3 296.215c11.922 7.884 20.156 18.862 23.7 32.785.539 3.666.857 7.298 1 11l3.188-.25c13.164.023 25.133 6.994 34.453 15.734 10.028 10.693 14.79 24.17 14.57 38.715-1.197 15.898-8.437 28.113-20.215 38.582-12.624 9.998-26.218 12.628-41.996 11.219-14.255-2.432-26.077-9.651-34.684-21.273-5.572-8.589-9.124-18.426-8.316-28.727-.536.03-.536.03-3.25.188-12.545-.089-25.94-5.668-35.07-14.297-11.157-12.559-16.708-26.22-16.098-43.067 1.534-14.037 8.115-26.234 18.418-35.824 18.723-14.398 43.761-16.71 64.3-4.785m-65 14.855c-9.133 11.63-11.208 23.51-10.3 37.93 1.658 11.36 8.847 23.135 18 30 7.883 4.808 15.692 8.217 25 9 .745.07 1.49.14 2.258.21 11.913.556 23.202-4.003 32.406-11.331 7.092-6.524 14.625-16.905 15.513-26.865.448-16.53-1.217-28.886-12.71-41.553-4.82-4.8-10.521-9.461-17.467-9.461l-1.059 2.59-1.379 3.348-1.37 3.34C1450 311 1450 311 1449 312a68 68 0 0 1-4.562-.437l-2.504-.31L1440 311v-7l2-1 3 5c3-1 3-1 4.688-4.312C1451 300 1451 300 1451 296c-18.32-4.327-35.847 1.583-48.7 15.07M1492 346l-1 10 4 2 2-6 4 1c-.397 1.319-.818 2.63-1.25 3.938l-.703 2.214C1498 361 1498 361 1496.266 361.754c-2.266.246-2.266.246-5.301-.004-2.965.25-2.965.25-4.836 2.375l-1.566 2.875c-5.183 8.807-10.248 14.246-19.11 19.457-4.028 2.534-4.028 2.534-5.453 4.543-.074 2.48-.074 2.48.313 5.188L1461 401l-9 4-2-5 6-1-1-6c-3.815-1.467-6.29-.433-10 1-.444 10.924 3.679 20.654 10.836 28.816 9.793 9.882 21.509 14.955 35.414 15.559 12.079-.27 23.562-5.412 32.438-13.5 9.877-10.578 14-22.902 13.656-37.133-1.153-12.545-7.177-23.486-16.657-31.68-8.948-6.818-17.642-8.746-28.687-10.062M1750.188 285.125c4.705 3.137 8.482 7.29 9.812 12.875-.258 5.426-1.126 9.287-4 14l-2 1q-.141 19.819-.207 39.638c-.021 6.136-.05 12.27-.095 18.406q-.063 8.88-.078 17.759-.01 3.39-.043 6.778a972 972 0 0 0-.031 9.488l-.044 2.836c.027 4.238.076 6.45 2.444 10.071L1758 420c2.465 4.343 2.222 8.275 1 13-1.801 4.836-4.36 8.03-9.008 10.344-4.944 1.629-9.41 1.234-14.242-.531-4.06-2.676-7.188-5.128-8.75-9.813-.737-6.913 0-11.303 4-17l1-1c.13-2.736.197-5.447.221-8.185l.035-2.602c.037-2.859.066-5.717.096-8.576l.07-5.963q.072-6.271.136-12.542.083-7.998.185-15.995.074-6.17.139-12.341.031-2.945.07-5.89c.353-28.51.353-28.51-2.937-32.028L1728 309c-1.938-5.814-2.02-11.921.688-17.437 6.165-6.833 12.553-9.596 21.5-6.438M1715.188 285.625c4.805 2.617 7.096 6.227 8.812 11.375.59 6.01-.854 10.006-4 15l-2 2c-.26 1.807-.26 1.807-.274 4.034l-.03 2.558-.002 2.811-.026 2.957c-.024 3.24-.033 6.479-.04 9.718l-.026 6.742q-.025 7.077-.028 14.153c-.005 6.044-.043 12.088-.088 18.132-.03 4.644-.037 9.289-.038 13.933a894 894 0 0 1-.038 6.684c-.027 3.12-.022 6.237-.01 9.357l-.044 2.787c.07 6.21 1.299 8.716 5.644 13.134 1.701 5.103 1.565 9.319-.687 14.188-2.476 4.53-5.373 7.165-10.313 8.812-5.693.564-10.15.307-15-3-4.012-3.979-6.123-7.554-6.312-13.25.048-4.98 1.392-7.745 4.312-11.75l3-1c-.015-13.065-.056-26.13-.132-39.195-.034-6.067-.06-12.134-.064-18.2a2516 2516 0 0 0-.077-17.565 853 853 0 0 1-.013-6.7 770 770 0 0 0-.055-9.387l.027-2.797c-.11-6.174-1.299-8.8-5.686-13.156-2.078-4.156-1.75-9.723-.316-14.074 4.7-8.993 14.305-12.437 23.504-8.301"/>
    <path fill="currentColor" d="M1427 367c1.628.228 3.253.483 4.875.75l2.742.422c2.383.828 2.383.828 3.696 2.64 1.093 3.48.808 6.554.687 10.188h-5l-2-8c-3.291 1.135-3.996 1.993-5.75 5.125L1425 381c-1.937-.312-1.937-.312-4-1l-1-3c1.434-2.48 1.434-2.48 3.438-5.187.658-.902 1.317-1.803 1.996-2.731zM1479 418c4.084.743 8.02 1.83 12 3q.29 2.186.563 4.375l.316 2.46C1492 430 1492 430 1491 432h-5v-9l-5 2 .125 2.375C1481 430 1481 430 1479 432c-2.125-.375-2.125-.375-4-1-.812-2-.812-2-1-5 1.412-2.85 3.149-5.419 5-8M1515 407q1.944.892 3.875 1.813l2.18 1.019C1523 411 1523 411 1525 414l-2 3-1.75-1c-2.25-1-2.25-1-6.25-1 0 3.273.3 5.847 1 9l-5 1c-3.932-6.077-3.932-6.077-4.187-9.562 1.829-3.755 4.904-5.944 8.187-8.438M1465.125 357.875c2.865 1.121 5.328 2.402 7.875 4.125l-2 5-1.75-1.062c-2.608-1.087-3.644-.869-6.25.062l3 6c-3 2-3 2-5.047 1.879-2.593-1.167-3.062-2.374-4.203-4.942l-1.016-2.222L1455 365c5.862-6.954 5.862-6.954 10.125-7.125M1417 306c2.335 2.257 4.187 4.28 6 7 0 4 0 4-2.562 6.75-2.566 1.955-3.647 2.283-7 2.813-3.922-.642-5.617-1.828-8.438-4.563.313-1.937.313-1.937 1-4l3-1 1.25 1.563L1412 316c2.188-.312 2.188-.312 4-1l-1.062-1.75c-.938-2.25-.938-2.25-.688-4.437C1415 307 1415 307 1417 306M1528 375l1 3c-3 2-3 2-6 2l1 4 7 1c-.875 3.875-.875 3.875-2 5-7.522.239-7.522.239-10-1-.633-2.285-.633-2.285-1.125-5.062l-.508-2.786L1517 379a265 265 0 0 1 3.813-2.562l2.144-1.442C1525 374 1525 374 1528 375M1398 341l5.957-.195C1406 341 1406 341 1409 343c.512 2.164.512 2.164.688 4.625l.199 2.477L1410 352c-1.24.87-2.492 1.72-3.75 2.563l-2.11 1.44c-2.14.997-2.14.997-4.406.65L1398 356l1-4 5-1-1-4-5-1zM1475.172 324.16l1.828.84 1 3c-3 2-3 2-6 2l1 4h6l1 3-1 2h-11l-2-10c6.398-5.044 6.398-5.044 9.172-4.84"/>
  </symbol>
  <symbol id="scw-swab" viewBox="1686 268 122 184">
    <path fill="currentColor" d="M1467.3 296.215c11.922 7.884 20.156 18.862 23.7 32.785.539 3.666.857 7.298 1 11l3.188-.25c13.164.023 25.133 6.994 34.453 15.734 10.028 10.693 14.79 24.17 14.57 38.715-1.197 15.898-8.437 28.113-20.215 38.582-12.624 9.998-26.218 12.628-41.996 11.219-14.255-2.432-26.077-9.651-34.684-21.273-5.572-8.589-9.124-18.426-8.316-28.727-.536.03-.536.03-3.25.188-12.545-.089-25.94-5.668-35.07-14.297-11.157-12.559-16.708-26.22-16.098-43.067 1.534-14.037 8.115-26.234 18.418-35.824 18.723-14.398 43.761-16.71 64.3-4.785m-65 14.855c-9.133 11.63-11.208 23.51-10.3 37.93 1.658 11.36 8.847 23.135 18 30 7.883 4.808 15.692 8.217 25 9 .745.07 1.49.14 2.258.21 11.913.556 23.202-4.003 32.406-11.331 7.092-6.524 14.625-16.905 15.513-26.865.448-16.53-1.217-28.886-12.71-41.553-4.82-4.8-10.521-9.461-17.467-9.461l-1.059 2.59-1.379 3.348-1.37 3.34C1450 311 1450 311 1449 312a68 68 0 0 1-4.562-.437l-2.504-.31L1440 311v-7l2-1 3 5c3-1 3-1 4.688-4.312C1451 300 1451 300 1451 296c-18.32-4.327-35.847 1.583-48.7 15.07M1492 346l-1 10 4 2 2-6 4 1c-.397 1.319-.818 2.63-1.25 3.938l-.703 2.214C1498 361 1498 361 1496.266 361.754c-2.266.246-2.266.246-5.301-.004-2.965.25-2.965.25-4.836 2.375l-1.566 2.875c-5.183 8.807-10.248 14.246-19.11 19.457-4.028 2.534-4.028 2.534-5.453 4.543-.074 2.48-.074 2.48.313 5.188L1461 401l-9 4-2-5 6-1-1-6c-3.815-1.467-6.29-.433-10 1-.444 10.924 3.679 20.654 10.836 28.816 9.793 9.882 21.509 14.955 35.414 15.559 12.079-.27 23.562-5.412 32.438-13.5 9.877-10.578 14-22.902 13.656-37.133-1.153-12.545-7.177-23.486-16.657-31.68-8.948-6.818-17.642-8.746-28.687-10.062M1750.188 285.125c4.705 3.137 8.482 7.29 9.812 12.875-.258 5.426-1.126 9.287-4 14l-2 1q-.141 19.819-.207 39.638c-.021 6.136-.05 12.27-.095 18.406q-.063 8.88-.078 17.759-.01 3.39-.043 6.778a972 972 0 0 0-.031 9.488l-.044 2.836c.027 4.238.076 6.45 2.444 10.071L1758 420c2.465 4.343 2.222 8.275 1 13-1.801 4.836-4.36 8.03-9.008 10.344-4.944 1.629-9.41 1.234-14.242-.531-4.06-2.676-7.188-5.128-8.75-9.813-.737-6.913 0-11.303 4-17l1-1c.13-2.736.197-5.447.221-8.185l.035-2.602c.037-2.859.066-5.717.096-8.576l.07-5.963q.072-6.271.136-12.542.083-7.998.185-15.995.074-6.17.139-12.341.031-2.945.07-5.89c.353-28.51.353-28.51-2.937-32.028L1728 309c-1.938-5.814-2.02-11.921.688-17.437 6.165-6.833 12.553-9.596 21.5-6.438M1715.188 285.625c4.805 2.617 7.096 6.227 8.812 11.375.59 6.01-.854 10.006-4 15l-2 2c-.26 1.807-.26 1.807-.274 4.034l-.03 2.558-.002 2.811-.026 2.957c-.024 3.24-.033 6.479-.04 9.718l-.026 6.742q-.025 7.077-.028 14.153c-.005 6.044-.043 12.088-.088 18.132-.03 4.644-.037 9.289-.038 13.933a894 894 0 0 1-.038 6.684c-.027 3.12-.022 6.237-.01 9.357l-.044 2.787c.07 6.21 1.299 8.716 5.644 13.134 1.701 5.103 1.565 9.319-.687 14.188-2.476 4.53-5.373 7.165-10.313 8.812-5.693.564-10.15.307-15-3-4.012-3.979-6.123-7.554-6.312-13.25.048-4.98 1.392-7.745 4.312-11.75l3-1c-.015-13.065-.056-26.13-.132-39.195-.034-6.067-.06-12.134-.064-18.2a2516 2516 0 0 0-.077-17.565 853 853 0 0 1-.013-6.7 770 770 0 0 0-.055-9.387l.027-2.797c-.11-6.174-1.299-8.8-5.686-13.156-2.078-4.156-1.75-9.723-.316-14.074 4.7-8.993 14.305-12.437 23.504-8.301"/>
    <path fill="currentColor" d="M1789.164 286.477c3.676 3.05 5.486 7.011 6.836 11.523.405 4.973-1.038 9.012-4 13l-1.577 1.38c-1.792 2.04-1.804 3.05-1.817 5.737l-.035 2.536.01 2.772-.027 2.928c-.023 3.201-.024 6.402-.023 9.604l-.023 6.67q-.019 6.998-.009 13.994c.006 5.976-.025 11.95-.065 17.927-.026 4.593-.029 9.187-.025 13.781a904 904 0 0 1-.03 6.609c-.022 3.083-.012 6.165.006 9.249l-.04 2.754c.081 6.177 1.332 8.665 5.655 13.059 2.109 4.86 2.342 8.727 1.035 13.781-1.916 4.107-5.318 6.746-9.035 9.219-5.397 1.8-10.1 1.695-15.25-.625-3.824-2.156-5.847-4.34-7.75-8.375-1.602-6.096-1.176-10.415 2-16l2.085-1.591c2.992-3.764 2.441-7.463 2.37-12.135v-2.987c-.002-3.257-.033-6.514-.064-9.771q-.012-3.39-.018-6.777c-.015-5.944-.054-11.889-.098-17.833-.041-6.067-.06-12.133-.08-18.199q-.066-17.853-.195-35.707l-3-1c-3.389-4.17-4.144-8.746-4-14 1.814-6.048 4.78-10.172 10.313-13.312 6.109-1.563 11.337-1.285 16.851 1.789"/>
    <path fill="currentColor" d="M492.86 283.203c7.339 6.161 11.403 13.71 13.015 23.047.78 9.626-2.729 18.486-8.875 25.75-5.997 6.629-12.887 10.161-21.762 11.379-9.426.417-18.136-2.675-25.453-8.61-6.298-6.243-9.963-13.549-10.166-22.478.032-11.243 2.17-18.944 10.03-27.244 13.265-11.547 29.088-11.818 43.21-1.844M1201.938 342.188l2.65.501c2.143.41 4.278.857 6.412 1.311-.492 4.167-1.164 6.797-3.812 10.063l-1.52 1.91L1204 358l-1.922 2.516c-2.026 2.422-4.027 4.237-6.515 6.171l-2.668 2.075L1190 371l-3.05 2.457c-10.355 8.287-21.514 14.571-33.513 20.168l-2.309 1.114c-5.359 2.412-5.359 2.412-8.577 1.78-.842-.5-1.684-1.002-2.551-1.519q-2.13-1.11-4.266-2.215c-19.101-10.354-36.84-22.49-54.734-34.785 6.356-6.451 6.356-6.451 10-8 4.83 1.399 8.975 4.332 13.188 7l2.193 1.367c5.351 3.365 5.351 3.365 7.619 5.633l2.656.863c4.607 1.566 8.61 3.991 12.778 6.479 4.432 2.497 6.69 2.869 11.566 1.658 4.596-1.993 8.971-4.428 13.375-6.812l1.892-1.016c9.041-4.867 17.532-10.124 25.534-16.586l1.611-1.285a75 75 0 0 0 3.205-2.787c5.123-4.343 8.994-3.707 15.32-2.327M1972.56 402.746l2.758-.017 3.003.012 3.179-.01c3.47-.01 6.94-.003 10.41.003l7.226-.005q7.572-.005 15.144.01c6.479.012 12.957.005 19.437-.007q7.459-.009 14.918 0 3.585.003 7.169-.005c3.335-.005 6.67.003 10.005.014l3.008-.012 2.75.017 2.388.002C2076 403 2076 403 2079 405c.248 2.934.326 5.636.25 8.563l-.016 2.404c-.08 5.879-.08 5.879-1.234 7.033a67 67 0 0 1-4.403.127l-2.881.009-3.187-.007-3.335.006q-5.488.004-10.975-.002l-7.59.003q-7.964.002-15.928-.006-9.22-.006-18.44.002-8.855.007-17.708.002-3.776 0-7.55.002-5.267.003-10.532-.007l-3.187.007-2.88-.009-2.519-.001C1965 423 1965 423 1964 422c-.073-2.863-.092-5.7-.062-8.562l.013-2.444q.02-2.997.049-5.994c2.987-1.714 5.128-2.25 8.56-2.254M137 374c6.856 4.795 11.478 10.04 13.559 18.188 1.213 7.204-.884 12.809-4.371 19.062-5.242 6.589-10.967 9.892-19.188 11.75-7.143.408-12.998-1.182-19-5l-2.687-1.687c-5.29-5.29-8.07-11.668-8.563-19.063.18-8.108 3.594-13.429 9.059-19.266 8.7-7.878 20.764-9.268 31.191-3.984M489.875 346.75C492 348 492 348 494 350c.125 2.25.125 2.25-1 5-1.645 1.309-1.645 1.309-3.687 2.688-7.462 5.201-11.995 14.526-13.711 23.363-.244 1.644-.43 3.296-.602 4.949h-5l-.664-2.71C466.008 370.597 461.38 362.257 451 354c1.572-3.316 2.649-5.279 6-7 2.337.304 4.67.643 7 1 13.699.625 13.699.625 19.625-1.125C487 346 487 346 489.875 346.75M1739 317h8v94l-7 1c-1.197-4.264-1.132-8.41-1.114-12.808v-2.691c0-2.933.009-5.865.016-8.798l.005-6.103q.006-8.03.024-16.059.014-8.195.02-16.389.016-16.076.049-32.152M1775 317h7q.2 11.01.391 22.018.09 5.117.182 10.235c.262 14.452.479 28.902.52 43.356l.02 3.523.002 3.273.006 2.847c-.131 2.98-.576 5.817-1.121 8.748-2 .043-4 .04-6 0-1.867-1.867-1.12-4.543-1.124-7.026l.01-2.625V398.6c0-3.014.009-6.028.016-9.041l.005-6.251q.006-8.244.024-16.488.014-8.405.02-16.81.016-16.506.049-33.01M1704 317h7v95l-7-1z"/>
    <path fill="currentColor" d="m2093 345 4 1v63h-12v-3l6-2 .031-2.195q.146-10.22.308-20.44.084-5.254.158-10.51c.057-4.023.122-8.046.187-12.07l.05-3.829.06-3.518.048-3.116C2092 346 2092 346 2093 345M1784 418c3.025 2.06 4.67 3.516 5.48 7.156.273 4.42-.04 6.289-2.855 9.844-3.815 2.907-5.812 3.463-10.625 3-3.2-1.477-5.328-2.64-6.926-5.871-1.1-3.568-1.364-5.443.113-8.942 4.592-5.54 7.432-6.969 14.813-5.187M1712 418c3.502 2.588 4.775 4.271 6.063 8.438-.078 4.443-1.19 6.223-4.063 9.562-3.204 2.35-6.103 2.546-10 2-3.33-2.01-5.37-3.263-6.703-6.937-.603-3.461-.488-5.585.828-8.875 4.237-4.944 7.537-5.999 13.875-4.188M1748 418c3.21 2.443 4.699 4.115 6 7.938 0 3.872-.857 5.848-3 9.062-2.695 2.186-4.522 2.919-7.937 3.5-4.313-.704-5.952-2.46-9.063-5.5-1.743-3.486-.864-7.295 0-11 3.934-5.245 7.834-5.488 14-4M1947 346h5l1 59 5 1v3h-11zM1712 291c3.502 2.588 4.775 4.271 6.063 8.438-.078 4.443-1.19 6.223-4.063 9.562-2.623 2.155-4.73 2.111-8 1.875-2.726-.452-4.06-.913-6.437-2.437-2.177-3.395-2.763-6.421-2.563-10.438 1.286-3.215 2.604-4.67 5.25-6.875 3.755-1.536 5.867-1.234 9.75-.125M1784 291c3.579 3.122 5.29 5.286 5.625 10.063-.625 3.937-.625 3.937-2.687 6.875-3.536 2.482-5.625 3.062-9.938 3.062-4.313-1.327-5.655-2.428-8-6.312-1.15-4.243-.98-5.814 1-9.688 4.214-5.03 7.678-5.635 14-4M1749 292c2.566 1.958 3.73 3.332 4.938 6.313.09 3.885-1.063 6.312-2.938 9.687-2.299 2.102-3.819 2.902-6.926 3.16-4.12-.194-5.868-.992-9.137-3.66-1.945-2.731-2.243-4.798-2.062-8.125.594-3.395 1.033-4.278 3.5-6.875 4.95-2.829 7.322-2.454 12.625-.5M127 390c2.373 1.796 3.646 3.269 4.938 5.938.096 3.177-.95 4.626-2.938 7.062-2.812 1.563-2.812 1.563-6 2-3.537-1.668-5.48-2.808-7.062-6.437.08-3.304 1.098-4.944 3.062-7.563 2.84-1.42 4.855-1.315 8-1"/>
  </symbol>
  <symbol id="scw-tissue" viewBox="1926 268 192 184">
    <path fill="currentColor" d="m2021.313 290.813 3.458-.038 3.342-.005 3.056-.013c2.964.254 5.143 1 7.831 2.243v4c-2.922 1.461-5.499 1.111-8.758 1.098l-2.01-.005c-2.118-.005-4.238-.018-6.357-.03q-2.154-.008-4.309-.014-5.283-.017-10.566-.049l.563 2.438L2008 303c-1 1-1 1-3.133 1.114l-2.777-.016-2.998-.01-3.155-.026-3.166-.013A2783 2783 0 0 1 1985 304v21h5c1.933 1.933 1.523 5.449 1.754 8.098l.197 2.148q.31 3.408.611 6.817l.42 4.61q.516 5.663 1.018 11.327h13l-1-2a60 60 0 0 1-.114-4.083v-2.547l.016-2.753.005-2.816c.005-2.975.018-5.95.03-8.926q.008-3.022.014-6.043.017-7.416.049-14.832l5-1c1.649 3.297 1.142 6.963 1.133 10.586l.003 2.586q0 2.71-.006 5.422c-.005 2.763 0 5.526.007 8.289q0 2.632-.004 5.265l.006 2.504-.01 2.346-.002 2.054C2012 354 2012 354 2011 358h22l-1-6a61 61 0 0 1-.022-4.17l.061-2.303.082-2.425.072-2.53q.116-3.974.245-7.947l.158-5.41q.193-6.608.404-13.215a88 88 0 0 1 5-1c2.31 2.31 1.172 8 1.186 11.068v2.056c.001 2.01.02 4.02.039 6.03.013 8.868-.787 17.101-2.225 25.846h15l-.062-4.77c0-6.018.466-11.932 1.062-17.918a1935.602 1935.602 0 0 1 1-10.312h6c-.095-.678-.19-1.356-.29-2.055-.11-.93-.22-1.861-.335-2.82l-.352-2.742C2059 314 2059 314 2061 304h-25v-3l6-1v-2c4.01-2.005 9.091-1.229 13.5-1.25l3.246-.062 3.098-.016 2.85-.028L2067 297c2 3 2 3 1.504 6.188l-.941 3.812c-1.458 6.4-2.266 12.52-.563 19 2.365 1.182 3.99 1.136 6.625 1.25 6.469.59 10.955 3.179 15.375 7.875 1 1.875 1 1.875 1 4.875l2.082-.105 2.73-.082 2.708-.106c2.48.293 2.48.293 4.11 1.397 2.034 2.815 1.751 5.078 1.758 8.523l.016 2.026c.013 2.21.005 4.419-.006 6.628q.003 2.304.01 4.607.005 4.827-.017 9.654c-.017 4.126-.007 8.251.01 12.378.012 3.17.008 6.34 0 9.512q-.003 2.282.008 4.564c.007 2.126-.004 4.251-.02 6.377l-.008 3.667c-.381 2.96-.381 2.96-1.682 4.856-2.873 1.867-6.083 1.412-9.387 1.291l-2.126-.04c-1.73-.036-3.458-.09-5.186-.147l.176 1.793.137 2.394.175 2.356c-.77 3.874-2.34 5.088-5.488 7.457-3.737.752-7.427.683-11.229.647l-3.435.027c-3.748.022-7.495.007-11.242-.01q-3.906.005-7.812.015c-5.458.009-10.915-.003-16.372-.027a2178 2178 0 0 0-18.91.009c-6.072.025-12.143.023-18.215.008q-3.87-.005-7.741.012c-3.606.013-7.21-.006-10.815-.034l-3.237.03c-7.226-.103-7.226-.103-11.177-3.064C1958 424 1958 424 1957.73 421.543l.457-2.356.418-2.394L1959 415l-3.176.07q-2.069.029-4.137.055c-.69.017-1.38.034-2.091.05-3.767.037-5.38-.031-8.596-2.175-.381-2.922-.381-2.922-.388-6.713l-.016-2.09c-.013-2.284-.005-4.568.006-6.853q-.003-2.377-.01-4.753-.005-4.983.017-9.966c.017-4.265.007-8.528-.01-12.793-.012-3.272-.008-6.543 0-9.815q.003-2.359-.008-4.718c-.007-2.196.004-4.39.02-6.586l.008-3.79L1941 342c3.204-2.136 4.02-2.231 7.688-2.125l2.449.055 1.863.07.688-2.75c1.867-4.625 4.423-6.375 8.874-8.437 5.094-1.204 10.224-1.492 15.438-1.813 1.03-7.07.916-13.171-.527-20.176-.5-2.99-.549-5.798-.473-8.824 6.168-1.099 12.184-1.115 18.438-1.062l3.083.013q3.74.018 7.479.049l.375-2.437L2007 292c4.191-2.096 9.708-1.185 14.313-1.187"/>
    <path fill="currentColor" d="M157 329q14.642-.034 29.285-.052 6.798-.007 13.596-.023 6.555-.016 13.11-.02 2.508-.003 5.014-.01 3.498-.01 6.997-.009l2.114-.01c4.77.01 4.77.01 5.884 1.124.1 2.856.136 5.687.13 8.543l.003 11.644q0 3.09.003 6.177.001 6.482-.006 12.963-.006 8.329.004 16.657.005 6.38 0 12.76 0 3.07.002 6.143.003 4.285-.007 8.57l.007 2.591c-.022 5.838-.022 5.838-1.136 6.952-2.708.095-5.391.126-8.1.114h-2.572c-2.819 0-5.638-.009-8.457-.016l-5.847-.005q-7.712-.006-15.423-.024-7.862-.014-15.724-.02-15.438-.016-30.877-.049c1.253-2.696 2.363-4.411 4.375-6.687 7.434-8.943 7.229-18.507 7.234-29.598q.023-2.503.05-5.006c.044-4.365.064-8.73.08-13.094.019-4.465.06-8.93.1-13.394.076-8.74.126-17.48.161-26.221M796 304q12.375-.141 24.751-.207c3.833-.021 7.665-.05 11.497-.095 3.71-.044 7.418-.067 11.127-.078a407 407 0 0 0 4.213-.043c15.125-.226 27.162 2.88 38.408 13.267 7.662 8.04 11.965 19.036 12.254 30.094-.3 12.222-4.52 20.902-12.805 29.789-6.562 6.1-13.035 8.404-21.866 8.387h-3.942l-4.246-.016-4.355-.005q-5.721-.006-11.442-.024-5.843-.014-11.684-.02-11.455-.016-22.91-.049v-2a80 80 0 0 1 3.625-2.875c8.082-6.907 11.394-16.781 12.375-27.125l.25-2.418c.72-13.78-5.55-26.857-14.527-36.984-2.722-2.525-5.793-4.426-8.965-6.336L796 306zM1975.813 333.813l2.677.04c2.17.036 4.34.09 6.51.147 3.85 20.748 3.85 20.748 2 30h70v-9c.114-1.827.254-3.652.438-5.473l.273-2.783.289-2.807c.095-.96.19-1.921.29-2.912q.349-3.513.71-7.025c2.896-.081 5.79-.14 8.688-.187l2.474-.077c4.804-.058 7.927.151 11.838 3.264 3.547 4.054 4.125 7.377 4.114 12.665v3.518l-.016 3.797-.005 3.889q-.006 5.112-.024 10.224-.014 5.217-.02 10.436-.016 10.236-.049 20.471l-1.581-.857c-6.285-3.133-11.487-3.713-18.443-3.645l-3.226-.016c-3.494-.013-6.987.004-10.48.022q-3.66 0-7.317-.005-7.65 0-15.3.034c-6.533.029-13.066.026-19.6.013-5.031-.007-10.063.001-15.094.014q-3.615.006-7.228 0c-3.365-.002-6.73.014-10.095.036l-3.009-.014c-5.39.058-8.87.637-13.627 3.418h-3c-1.26-3.782-1.143-7.322-1.133-11.262l-.003-2.495q0-2.627.006-5.253c.005-2.622 0-5.245-.007-7.867-.005-8.01.072-16.016.457-24.018l.173-3.733c.693-4.61 2.086-8.095 5.581-11.235 4.264-1.657 8.21-1.456 12.738-1.325M1492 346c14.871 1.771 26.36 5.55 36.11 17.61 7.466 11.04 10.26 22.109 8.89 35.39-2.291 11.226-8.634 23.1-18 30-14.05 8.199-26.636 11.218-42.73 7.094-11.491-3.844-20.933-11.376-26.645-22.156A95 95 0 0 1 1448 410l-.898-2.25c-1.759-4.775-2.426-8.672-2.102-13.75 6.286-2.429 6.286-2.429 10-1l1 6-6 1 2 5 9-4-1-11 2.125-1.285c10.77-6.658 17.423-12.764 23.875-23.715l2-3c2.164-.293 2.164-.293 4.625-.187l2.477.082L1497 362a98 98 0 0 0 4-9l-4-1-2 6-4-2z"/>
    <path fill="currentColor" d="M492.86 283.203c7.339 6.161 11.403 13.71 13.015 23.047.78 9.626-2.729 18.486-8.875 25.75-5.997 6.629-12.887 10.161-21.762 11.379-9.426.417-18.136-2.675-25.453-8.61-6.298-6.243-9.963-13.549-10.166-22.478.032-11.243 2.17-18.944 10.03-27.244 13.265-11.547 29.088-11.818 43.21-1.844M1201.938 342.188l2.65.501c2.143.41 4.278.857 6.412 1.311-.492 4.167-1.164 6.797-3.812 10.063l-1.52 1.91L1204 358l-1.922 2.516c-2.026 2.422-4.027 4.237-6.515 6.171l-2.668 2.075L1190 371l-3.05 2.457c-10.355 8.287-21.514 14.571-33.513 20.168l-2.309 1.114c-5.359 2.412-5.359 2.412-8.577 1.78-.842-.5-1.684-1.002-2.551-1.519q-2.13-1.11-4.266-2.215c-19.101-10.354-36.84-22.49-54.734-34.785 6.356-6.451 6.356-6.451 10-8 4.83 1.399 8.975 4.332 13.188 7l2.193 1.367c5.351 3.365 5.351 3.365 7.619 5.633l2.656.863c4.607 1.566 8.61 3.991 12.778 6.479 4.432 2.497 6.69 2.869 11.566 1.658 4.596-1.993 8.971-4.428 13.375-6.812l1.892-1.016c9.041-4.867 17.532-10.124 25.534-16.586l1.611-1.285a75 75 0 0 0 3.205-2.787c5.123-4.343 8.994-3.707 15.32-2.327M1972.56 402.746l2.758-.017 3.003.012 3.179-.01c3.47-.01 6.94-.003 10.41.003l7.226-.005q7.572-.005 15.144.01c6.479.012 12.957.005 19.437-.007q7.459-.009 14.918 0 3.585.003 7.169-.005c3.335-.005 6.67.003 10.005.014l3.008-.012 2.75.017 2.388.002C2076 403 2076 403 2079 405c.248 2.934.326 5.636.25 8.563l-.016 2.404c-.08 5.879-.08 5.879-1.234 7.033a67 67 0 0 1-4.403.127l-2.881.009-3.187-.007-3.335.006q-5.488.004-10.975-.002l-7.59.003q-7.964.002-15.928-.006-9.22-.006-18.44.002-8.855.007-17.708.002-3.776 0-7.55.002-5.267.003-10.532-.007l-3.187.007-2.88-.009-2.519-.001C1965 423 1965 423 1964 422c-.073-2.863-.092-5.7-.062-8.562l.013-2.444q.02-2.997.049-5.994c2.987-1.714 5.128-2.25 8.56-2.254M137 374c6.856 4.795 11.478 10.04 13.559 18.188 1.213 7.204-.884 12.809-4.371 19.062-5.242 6.589-10.967 9.892-19.188 11.75-7.143.408-12.998-1.182-19-5l-2.687-1.687c-5.29-5.29-8.07-11.668-8.563-19.063.18-8.108 3.594-13.429 9.059-19.266 8.7-7.878 20.764-9.268 31.191-3.984M489.875 346.75C492 348 492 348 494 350c.125 2.25.125 2.25-1 5-1.645 1.309-1.645 1.309-3.687 2.688-7.462 5.201-11.995 14.526-13.711 23.363-.244 1.644-.43 3.296-.602 4.949h-5l-.664-2.71C466.008 370.597 461.38 362.257 451 354c1.572-3.316 2.649-5.279 6-7 2.337.304 4.67.643 7 1 13.699.625 13.699.625 19.625-1.125C487 346 487 346 489.875 346.75M1739 317h8v94l-7 1c-1.197-4.264-1.132-8.41-1.114-12.808v-2.691c0-2.933.009-5.865.016-8.798l.005-6.103q.006-8.03.024-16.059.014-8.195.02-16.389.016-16.076.049-32.152M1775 317h7q.2 11.01.391 22.018.09 5.117.182 10.235c.262 14.452.479 28.902.52 43.356l.02 3.523.002 3.273.006 2.847c-.131 2.98-.576 5.817-1.121 8.748-2 .043-4 .04-6 0-1.867-1.867-1.12-4.543-1.124-7.026l.01-2.625V398.6c0-3.014.009-6.028.016-9.041l.005-6.251q.006-8.244.024-16.488.014-8.405.02-16.81.016-16.506.049-33.01M1704 317h7v95l-7-1z"/>
    <path fill="currentColor" d="m2093 345 4 1v63h-12v-3l6-2 .031-2.195q.146-10.22.308-20.44.084-5.254.158-10.51c.057-4.023.122-8.046.187-12.07l.05-3.829.06-3.518.048-3.116C2092 346 2092 346 2093 345M1784 418c3.025 2.06 4.67 3.516 5.48 7.156.273 4.42-.04 6.289-2.855 9.844-3.815 2.907-5.812 3.463-10.625 3-3.2-1.477-5.328-2.64-6.926-5.871-1.1-3.568-1.364-5.443.113-8.942 4.592-5.54 7.432-6.969 14.813-5.187M1712 418c3.502 2.588 4.775 4.271 6.063 8.438-.078 4.443-1.19 6.223-4.063 9.562-3.204 2.35-6.103 2.546-10 2-3.33-2.01-5.37-3.263-6.703-6.937-.603-3.461-.488-5.585.828-8.875 4.237-4.944 7.537-5.999 13.875-4.188M1748 418c3.21 2.443 4.699 4.115 6 7.938 0 3.872-.857 5.848-3 9.062-2.695 2.186-4.522 2.919-7.937 3.5-4.313-.704-5.952-2.46-9.063-5.5-1.743-3.486-.864-7.295 0-11 3.934-5.245 7.834-5.488 14-4M1947 346h5l1 59 5 1v3h-11zM1712 291c3.502 2.588 4.775 4.271 6.063 8.438-.078 4.443-1.19 6.223-4.063 9.562-2.623 2.155-4.73 2.111-8 1.875-2.726-.452-4.06-.913-6.437-2.437-2.177-3.395-2.763-6.421-2.563-10.438 1.286-3.215 2.604-4.67 5.25-6.875 3.755-1.536 5.867-1.234 9.75-.125M1784 291c3.579 3.122 5.29 5.286 5.625 10.063-.625 3.937-.625 3.937-2.687 6.875-3.536 2.482-5.625 3.062-9.938 3.062-4.313-1.327-5.655-2.428-8-6.312-1.15-4.243-.98-5.814 1-9.688 4.214-5.03 7.678-5.635 14-4M1749 292c2.566 1.958 3.73 3.332 4.938 6.313.09 3.885-1.063 6.312-2.938 9.687-2.299 2.102-3.819 2.902-6.926 3.16-4.12-.194-5.868-.992-9.137-3.66-1.945-2.731-2.243-4.798-2.062-8.125.594-3.395 1.033-4.278 3.5-6.875 4.95-2.829 7.322-2.454 12.625-.5M127 390c2.373 1.796 3.646 3.269 4.938 5.938.096 3.177-.95 4.626-2.938 7.062-2.812 1.563-2.812 1.563-6 2-3.537-1.668-5.48-2.808-7.062-6.437.08-3.304 1.098-4.944 3.062-7.563 2.84-1.42 4.855-1.315 8-1"/>
  </symbol>
</svg>