<svg xmlns="http://www.w3.org/2000/svg" style="display:none">
  <defs>
    <style>
      .cls-1, .cls-2 { fill: #1D9E75; }
      .cls-3 { fill: currentColor; }
    </style>
  </defs>
  <symbol id="scw-roll" viewBox="-6.00 -5.92 191.98 193.63">
    <path class="cls-3" d="M179.98,175.67c0,3.05-1,6.04-4.65,6.04H35.5c-18.44-1.64-32.56-15.13-35.5-33.25L.25,35.91C.29,20.89,11.77,8.66,23.89,3.32c14.61-6.44,30.36-2.89,41.72,7.16,9.52,8.42,14.24,19.54,13.2,32.97l95.5-.02c3.48,0,5.66,1.87,5.66,5.53v126.72ZM69.35,119.94l-.27-82.13c-.05-14.73-13.03-26.84-27.64-28.05-15.64-1.3-31.62,10.82-31.7,27.04l-.39,82.66c9.87-9.8,19.5-14.39,31.55-14.07,11.06.3,20.64,5.65,28.44,14.54ZM170.75,172.55V52.69s-92.01.18-92.01.18l-.35,94.84c-1.22,9.87-5.96,17.18-13.32,24.92l105.68-.08ZM68.26,143.84c0-16.14-13.08-29.22-29.22-29.22s-29.22,13.08-29.22,29.22,13.08,29.22,29.22,29.22,29.22-13.08,29.22-29.22Z" />
    <path class="cls-2" d="M170.75,172.55l-105.68.08c7.36-7.74,12.11-15.05,13.32-24.92l.35-94.84,91.99-.18v119.86Z" />
    <path class="cls-1" d="M69.35,119.94c-7.81-8.89-17.38-14.25-28.44-14.54-12.05-.32-21.69,4.27-31.55,14.07l.39-82.66c.08-16.22,16.06-28.34,31.7-27.04,14.61,1.22,27.59,13.32,27.64,28.05l.27,82.13Z" />
    <path class="cls-1" d="M68.26,143.84c0,16.14-13.08,29.22-29.22,29.22s-29.22-13.08-29.22-29.22,13.08-29.22,29.22-29.22,29.22,13.08,29.22,29.22ZM57.54,143.63c0-10.13-8.21-18.33-18.33-18.33s-18.33,8.21-18.33,18.33,8.21,18.33,18.33,18.33,18.33-8.21,18.33-18.33Z" />
    <path class="cls-3" d="M57.54,143.63c0,10.13-8.21,18.33-18.33,18.33s-18.33-8.21-18.33-18.33,8.21-18.33,18.33-18.33,18.33,8.21,18.33,18.33ZM48.48,143.63c0-5.06-4.1-9.16-9.16-9.16s-9.16,4.1-9.16,9.16,4.1,9.16,9.16,9.16,9.16-4.1,9.16-9.16Z" />
    <circle class="cls-1" cx="39.31" cy="143.63" r="9.16" />
  </symbol>
  <symbol id="scw-cotton" viewBox="299.05 -6.00 218.43 202.17">
    <path class="cls-3" d="M401.75,141.29c0,26.7-21.65,48.35-48.35,48.35s-48.35-21.65-48.35-48.35,21.65-48.35,48.35-48.35,48.35,21.65,48.35,48.35ZM392.37,141.36c0-21.55-17.47-39.03-39.03-39.03s-39.03,17.47-39.03,39.03,17.47,39.03,39.03,39.03,39.03-17.47,39.03-39.03Z" />
    <path class="cls-3" d="M511.48,141.86c0,26.68-21.63,48.31-48.31,48.31s-48.31-21.63-48.31-48.31,21.63-48.31,48.31-48.31,48.31,21.63,48.31,48.31ZM502.15,141.94c0-21.53-17.45-38.98-38.98-38.98s-38.98,17.45-38.98,38.98,17.45,38.98,38.98,38.98,38.98-17.45,38.98-38.98Z" />
    <path class="cls-3" d="M456.25,48.54c0,26.81-21.73,48.54-48.54,48.54s-48.54-21.73-48.54-48.54S380.9,0,407.71,0s48.54,21.73,48.54,48.54ZM446.91,48.64c0-21.68-17.58-39.26-39.26-39.26s-39.26,17.58-39.26,39.26,17.58,39.26,39.26,39.26,39.26-17.58,39.26-39.26Z" />
    <circle class="cls-1" cx="353.34" cy="141.36" r="39.03" />
    <circle class="cls-1" cx="463.17" cy="141.94" r="38.98" />
    <circle class="cls-1" cx="407.64" cy="48.64" r="39.26" />
  </symbol>
  <symbol id="scw-yarn" viewBox="612.74 10.94 240.50 172.00">
    <path class="cls-3" d="M847.24,152.56c-.04,11.44-8.76,24.4-21.06,24.38l-143.36-.25c-23.24-.04-42.86-16.91-53.43-36.72-13.57-25.44-14.24-56.19-1.65-81.95,11.7-23.94,34.84-40.94,61.75-40.97l101.91-.11c33.39-.04,57.97,29.08,55.65,61.92-1.32,18.63-9.92,34.22-23.64,48.37,13.94.91,23.88,10.53,23.83,25.33ZM697.5,95.56c6.04-1.76,10.31-6.33,8.74-12.76-2.06-8.43-10.97-13.53-19.59-11.82-10.83,2.14-17.9,10.85-19.59,21.74s1.94,22.51,10.94,29.55c8.28,6.48,19.97,8.17,29.94,4.96,12.97-4.18,22.26-15.16,26.36-25.76,5.58-14.43,3.58-28.37-3.97-40.43-2.37-2.04-2.98-5.26-.78-7.65.94-1.16,4.79-2.29,6.36-.13,17.21,23.57,13.16,55.09-9.52,74.86l83.64-.21,17.34-20.23c7.3-10.75,11.5-22.46,10.78-35.78-1.28-23.55-19.08-45.52-44.05-45.6l-104.57-.33c-14.94-.05-28.52,6.94-39.06,16.78-28.63,26.71-29.93,74.7-4.86,104.81,12.1,14.53,28.98,21.07,47.99,21l130.85-.44c10.39-.03,15.74-11.71,13.35-20.44-1.79-6.56-6.49-10.91-13.42-10.89l-129.86.41c-20.06.06-35.26-15.91-36.98-35.37-1.15-13.04,3.23-25.48,13.37-33.54,11.1-8.82,27.21-9.16,37.62.22,5.67,5.11,7.86,11.94,6.81,19.53-.75,5.47-4.63,12.19-10.88,14.36-2.65.92-5.49.14-6.96-1.12-1.11-.96-2.27-5.05,0-5.71Z" />
    <path class="cls-1" d="M697.5,95.56c-2.27.66-1.11,4.75,0,5.71,1.48,1.27,4.32,2.04,6.96,1.12,6.24-2.17,10.12-8.89,10.88-14.36,1.05-7.59-1.15-14.42-6.81-19.53-10.4-9.38-26.52-9.04-37.62-.22-10.14,8.06-14.53,20.51-13.37,33.54,1.72,19.46,16.92,35.43,36.98,35.37l129.86-.41c6.93-.02,11.63,4.33,13.42,10.89,2.38,8.74-2.96,20.41-13.35,20.44l-130.85.44c-19.01.06-35.89-6.47-47.99-21-25.08-30.11-23.78-78.1,4.86-104.81,10.55-9.84,24.12-16.83,39.06-16.78l104.57.33c24.97.08,42.76,22.05,44.05,45.6.73,13.32-3.47,25.03-10.78,35.78l-17.34,20.23-83.64.21c22.68-19.77,26.73-51.29,9.52-74.86-1.57-2.15-5.42-1.03-6.36.13-2.2,2.38-1.59,5.6.78,7.65,7.55,12.06,9.55,26,3.97,40.43-4.1,10.59-13.39,21.58-26.36,25.76-9.97,3.21-21.66,1.52-29.94-4.96-9-7.04-12.63-18.71-10.94-29.55s8.76-19.6,19.59-21.74c8.62-1.71,17.53,3.4,19.59,11.82,1.57,6.42-2.7,11-8.74,12.76Z" />
  </symbol>
  <symbol id="scw-fabric" viewBox="940.49 7.70 217.85 193.14">
    <path class="cls-3" d="M1151.79,127.5c-16.34,23.8-36.65,48.87-63.03,61.2-22.16,10.36-46.02,7.28-65.63-6.64-24.77-17.59-41.53-24.74-71.61-30.45-2.13-.4-3.82-1.52-4.33-2.99-.72-2.07-.51-4.41,1.04-6.15l20.69-23.2-18.74-5.49c-2.65-.77-5.07-4.91-2.77-7.52l21.48-24.4-17.45-5.18c-3.76-1.12-5.3-3.61-4.52-8.12,16.63-18.12,35.13-34.67,56.17-47.96,13.9-8.79,30.39-9.69,43.36.29l16.88,12.98c16.23,12.49,35.86,16.01,55.84,11.84l27.25-4.39c1.83-.3,3.59.5,4.59,1.51.93.94,1.87,3.94.81,5.56l-19.73,30.24,15.52,3.2c1.73.36,3.25,1.33,3.85,2.5.53,1.04,1.18,3.64.25,4.91l-20.16,27.45,18.06,4.24c1.86.44,3.66,4.44,2.2,6.57ZM1139.54,51.29l-25.97,4.66c-18.58,2.39-37.05-1.07-52-12.39l-19.26-14.58c-10.37-7.85-22.54-7.96-33.79-1.08-18.24,11.16-34.44,24.87-49.87,41.14l27.76,8.88c12.02,3.84,22.39,10.1,32.86,17.02l15.57,10.28c43,24.18,83.4-17.5,104.69-53.92ZM1140.94,89.77l-16.15-3.03c-28.75,31.65-63.5,47.34-101.26,21.86-13.62-10.05-27.58-18.31-44.48-23.8l-20.75,21.87,32.43,9.89c14.82,5.46,27.23,13.98,40.07,22.62,16.52,11.12,35.72,12.69,53.65,4.53,23.03-10.49,41.46-33.2,56.5-53.94ZM1140.42,128.56l-16.13-4.31c-28.2,31.26-65.16,46.16-101.55,20.15-13.76-9.12-26.93-17.86-43.71-22.5l-20.21,22.03c19.67,4.34,37.71,9.93,53.93,20.54l20.59,13.46c15.15,9.9,33.09,10.85,49.87,3.46,13.49-5.94,24.73-15.19,35.03-25.87l22.17-26.96Z" />
    <path class="cls-1" d="M1139.54,51.29c-21.29,36.42-61.69,78.1-104.69,53.92l-15.57-10.28c-10.48-6.92-20.85-13.17-32.86-17.02l-27.76-8.88c15.43-16.27,31.63-29.98,49.87-41.14,11.25-6.88,23.42-6.77,33.79,1.08l19.26,14.58c14.95,11.32,33.41,14.78,52,12.39l25.97-4.66Z" />
    <path class="cls-1" d="M1140.42,128.56l-22.17,26.96c-10.3,10.69-21.55,19.93-35.03,25.87-16.78,7.39-34.72,6.45-49.87-3.46l-20.59-13.46c-16.22-10.6-34.26-16.2-53.93-20.54l20.21-22.03c16.78,4.64,29.95,13.38,43.71,22.5,36.39,26.01,73.35,11.11,101.55-20.15l16.13,4.31Z" />
    <path class="cls-1" d="M1140.94,89.77c-15.04,20.73-33.47,43.44-56.5,53.94-17.92,8.17-37.12,6.6-53.65-4.53-12.84-8.64-25.25-17.16-40.07-22.62l-32.43-9.89,20.75-21.87c16.9,5.49,30.86,13.74,44.48,23.8,37.76,25.49,72.51,9.79,101.26-21.86l16.15,3.03Z" />
  </symbol>
  <symbol id="scw-pad" viewBox="1236.55 -5.64 214.59 215.97">
    <path class="cls-3" d="M1384.83,204.1c-41.1,3.35-76.78-30.44-70.99-71.92-30.64,2-58.66-15.54-67.96-44.31-13.15-40.67,14.11-82.2,56.61-87.09,39.45-4.54,74.12,27.94,72.85,68.31,22.51-1.26,42.24,8.5,55.62,26.43,14.83,19.88,18.87,45.9,8.09,69.65-9.2,20.26-29.58,36.93-54.22,38.94ZM1335.43,117.35c2.14-1.09,2.45-3.47,2.26-5.49l5.79.19c8.98-7.3,16.39-16.23,19.85-27.49-3.16-4.78-8.93-.61-14.58-4.14-2.1-1.31-1.65-4.39-.12-5.95,3.62-3.69,9.44,2.24,16.84,2.44,2.39-12.05.4-23.77-4.83-34.47l-6.05.78c-1.54.2-1.84-3.37-1.12-4.75.48-.92,1.22-1.96,3.1-3.23-17.39-27.21-53.22-33.67-80.12-15.25.16,1.88,1.53,5.77,3.26,6.19,3.64.74,5.5.92,6.28,4.57.54,2.52.23,5.05-3.06,6.55l-5.05,5.07c-2.14,2.15-7.26-1.6-7.3-4.34-.05-3.71,3.19-5.03,4.58-7.66,1.14-2.15-2.18-6.21-4.49-5.97-18.71,16.3-24.04,42.71-14.35,65.4,4.11,9.61,10.42,17.49,19.39,23.03l6.62-1.1.62,5.82c16.46,7.88,35.69,8.35,52.47-.21ZM1407.13,184.11c.77-.17,3.12,1.07,4.11.41,10.86-7.27,18.83-17.98,22.25-30.77.46-1.74-1.91-3.38-2.99-3.79-1.51-.58-6.24,1.85-13.15-2.18-2.35-1.37-1.16-6.01,1.26-6.82,7.68-2.55,10.47,6.35,17.08,3.65,1.77-12.04-1.06-24.6-6.84-35.24-2.31.02-3.59.04-5.42-.71l1.36-5.85c-9.36-13.9-23.49-22.47-40.03-25.24-3.56-.6-6.94.02-11.1.83,3.18,2.58,4.52,3.7,5.36,6.89.95,3.59,8.68,1.18,9.54,6.08.42,2.36-.47,4.72-2.24,5.77s-11.8-1.12-12.09-1.64l-3.08-5.52c-8.87,20.75-25.68,36.09-47.59,40.82-2.79,8.82-1.83,17.27.88,25.89,3.82,11.17,10.82,21.18,20.79,27.66,1.6-.64,4.1-.87,5.2-.29.93.49,1.12,2.95,1.52,4.42,16.23,8.56,36.37,9.65,52.59.49l2.57-4.86Z" />
    <path class="cls-1" d="M1335.43,117.35c-16.79,8.56-36.02,8.09-52.47.21l-.62-5.82-6.62,1.1c-8.98-5.55-15.29-13.42-19.39-23.03-9.69-22.68-4.37-49.1,14.35-65.4,2.3-.24,5.63,3.82,4.49,5.97-1.38,2.62-4.63,3.95-4.58,7.66.04,2.74,5.15,6.49,7.3,4.34l5.05-5.07c3.28-1.49,3.6-4.03,3.06-6.55-.78-3.65-2.64-3.83-6.28-4.57-1.73-.43-3.11-4.31-3.26-6.19,26.9-18.42,62.73-11.95,80.12,15.25-1.88,1.27-2.62,2.31-3.1,3.23-.72,1.38-.42,4.95,1.12,4.75l6.05-.78c5.23,10.69,7.22,22.42,4.83,34.47-7.41-.2-13.22-6.13-16.84-2.44-1.54,1.57-1.98,4.64.12,5.95,5.65,3.53,11.42-.64,14.58,4.14-3.45,11.25-10.86,20.19-19.85,27.49l-5.79-.19c.19,2.02-.12,4.4-2.26,5.49ZM1311.64,15.48c-.28-1.98-1.84-3.63-3.6-2.96-2.61,1-4.97,10.4-1.36,16.02,3.56-.14,6.78-.05,10.09,1s5.83-1.37,6.18-4.4c.76-6.74-10.34-2.7-11.31-9.65ZM1352.7,51.41c-.05-6.68-4.86-16.97-10.67-13.55-1.4.82-2.84,3.25-1.92,5.26l5.11,11.12c.97,2.11,7.5-.26,7.48-2.83ZM1270.11,64.37c-3.52-2.14-8.54-1.85-11.18.65-2.14,2.03,1.11,3.57,1.66,4.61l3.1,13.88c.52,2.34,3.96,2.25,5.56,1.56,6.74-2.91-1.31-8.25.87-20.7ZM1339.99,103.74c-.55-2.67-2.89-5.72-4.28-6.97-2.24-2.01-10.04,3.51-9.44,5.95.66,2.65,2.3,5.2,3.62,7.62,4.28,1.89,11.2-1.25,10.1-6.6ZM1297.16,103.17c-4.23-.36-7.03-3.26-10.62-4.55-2.59-.93-4.98,2.4-5.34,4.12s-.03,5.59,1.55,6.65c8.32-.17,14.8,5.87,18.08,2.42,1.08-1.14,1.56-3.78.96-5.92-.4-1.4-2.64-2.55-4.62-2.71Z" />
    <path class="cls-1" d="M1407.13,184.11l-2.57,4.86c-16.23,9.17-36.36,8.07-52.59-.49-.41-1.47-.6-3.93-1.52-4.42-1.1-.59-3.6-.35-5.2.29-9.97-6.48-16.98-16.49-20.79-27.66-2.71-8.62-3.67-17.07-.88-25.89,21.91-4.73,38.72-20.07,47.59-40.82l3.08,5.52c.29.52,10.25,2.73,12.09,1.64s2.65-3.41,2.24-5.77c-.86-4.9-8.59-2.49-9.54-6.08-.84-3.19-2.18-4.31-5.36-6.89,4.16-.81,7.54-1.42,11.1-.83,16.54,2.77,30.67,11.34,40.03,25.24l-1.36,5.85c1.83.75,3.11.72,5.42.71,5.78,10.63,8.61,23.2,6.84,35.24-6.61,2.7-9.4-6.2-17.08-3.65-2.43.81-3.62,5.44-1.26,6.82,6.91,4.03,11.64,1.6,13.15,2.18,1.08.42,3.45,2.05,2.99,3.79-3.42,12.79-11.39,23.5-22.25,30.77-.99.66-3.34-.59-4.11-.41ZM1421.76,117.89l-4.23-10.14c-1-2.41-3.12-4.07-5.46-3.78-1.98.25-3.58,1.9-4.23,3.6-.92,2.41,1.36,3.4,2.25,5.57l3.8,9.3c.8,1.95,4.23,1.06,5.74.03,1.08-.73,3.01-2.42,2.12-4.57ZM1341.9,151.77c-2.34-5.69-2.28-10.08-2.32-15.43-.03-3.66-6.03-3.73-8.24-1.93-1.36,1.11-2.09,1.7-2.47,3.09-.22.8,1.64,1.86,1.86,3.01l2.65,13.54c.39,1.99,3.7,1.85,5.09,1.46,1.27-.35,4.06-2.22,3.43-3.74ZM1409.17,176.28c-.12-1.92-3.46-9.13-6.26-9.49-1.59-.2-8.68,4.21-8.58,6.46.06,1.45,3.78,8.75,5.94,9.23,4.23.95,9.04-4.07,8.91-6.2ZM1366.53,173.95c-4.2-.2-6.81-3.4-10.12-4.71-2.97-1.17-4.75,2.09-5.47,3.7-.66,1.47-.92,5.83.85,6.24,10.1,2.33,15.14,5.93,17.89,3.32,1.29-1.22,1.77-3.51,1.1-5.61-.42-1.31-2.27-2.84-4.25-2.93Z" />
    <path class="cls-3" d="M1270.11,64.37c-2.18,12.45,5.87,17.79-.87,20.7-1.6.69-5.04.77-5.56-1.56l-3.1-13.88c-.54-1.04-3.79-2.58-1.66-4.61,2.64-2.5,7.66-2.78,11.18-.65Z" />
    <path class="cls-3" d="M1297.16,103.17c1.98.17,4.23,1.31,4.62,2.71.6,2.13.12,4.78-.96,5.92-3.28,3.45-9.76-2.58-18.08-2.42-1.58-1.06-1.89-4.98-1.55-6.65s2.74-5.05,5.34-4.12c3.59,1.29,6.39,4.19,10.62,4.55Z" />
    <path class="cls-3" d="M1311.64,15.48c.97,6.95,12.07,2.92,11.31,9.65-.34,3.04-2.87,5.44-6.18,4.4s-6.53-1.14-10.09-1c-3.6-5.62-1.24-15.02,1.36-16.02,1.76-.67,3.32.97,3.6,2.96Z" />
    <path class="cls-3" d="M1352.7,51.41c.02,2.58-6.51,4.94-7.48,2.83l-5.11-11.12c-.93-2.01.52-4.44,1.92-5.26,5.81-3.42,10.63,6.87,10.67,13.55Z" />
    <path class="cls-3" d="M1339.99,103.74c1.1,5.35-5.82,8.49-10.1,6.6-1.32-2.42-2.96-4.97-3.62-7.62-.61-2.44,7.2-7.96,9.44-5.95,1.4,1.25,3.74,4.3,4.28,6.97Z" />
    <path class="cls-3" d="M1366.53,173.95c1.98.09,3.83,1.62,4.25,2.93.67,2.1.19,4.39-1.1,5.61-2.75,2.61-7.79-.98-17.89-3.32-1.77-.41-1.51-4.77-.85-6.24.73-1.61,2.51-4.87,5.47-3.7,3.31,1.31,5.92,4.51,10.12,4.71Z" />
    <path class="cls-3" d="M1341.9,151.77c.63,1.52-2.17,3.39-3.43,3.74-1.39.39-4.7.53-5.09-1.46l-2.65-13.54c-.22-1.15-2.08-2.2-1.86-3.01.38-1.39,1.11-1.98,2.47-3.09,2.21-1.8,8.21-1.74,8.24,1.93.04,5.35-.02,9.75,2.32,15.43Z" />
    <path class="cls-3" d="M1421.76,117.89c.9,2.16-1.04,3.84-2.12,4.57-1.52,1.03-4.95,1.92-5.74-.03l-3.8-9.3c-.89-2.17-3.17-3.16-2.25-5.57.65-1.71,2.25-3.36,4.23-3.6,2.34-.29,4.45,1.37,5.46,3.78l4.23,10.14Z" />
    <path class="cls-3" d="M1409.17,176.28c.13,2.13-4.68,7.15-8.91,6.2-2.16-.48-5.88-7.78-5.94-9.23-.1-2.25,7-6.67,8.58-6.46,2.8.36,6.14,7.57,6.26,9.49Z" />
  </symbol>
  <symbol id="scw-swab" viewBox="1532.62 2.45 139.47 207.38">
    <path class="cls-3" d="M1607.48,9.49c7.69,2.39,12.12,9.36,12.58,17.28.44,7.5-2.5,13.64-8.63,17.99l.2,122.49c6.28,4.91,9.01,11.23,8.43,18.86-.47,6.18-3.72,12.63-10.26,15.97-4.92,2.51-11.75,2.16-16.31-.85-3.53-2.34-6.15-6.38-7.89-10.45-1.66-3.89-.13-9.1.14-13.27.07-1.11.6-2.16,1.06-2.87,1.83-2.82,3.64-5.11,6.7-7.34l-.12-100.79.03-21.65c0-2.13-2.91-2.53-3.63-3.43l-2.69-3.38c-1.73-4.18-2.56-9.97-1.98-14.35.23-1.72,1.02-3.6,1.72-5.11,3.62-7.76,12.57-11.61,20.65-9.1ZM1603.94,39.01c6.54-1.04,8.28-7.92,7.55-13.14-.74-5.35-4.59-9.06-9.44-8.85-5.16.22-8.16,4.37-8.73,9.82-.63,6,3.25,13.34,10.61,12.17ZM1603.48,47.76h-2v116h2V47.76ZM1610.86,189.14c1.21-4.15,1.01-8.84-1.18-12.5-1.78-2.96-4.65-4.44-7.7-4.31-6.55.29-9.89,7.7-8.1,16.04.93,4.33,4.26,6.85,8.32,7.1,3.64.22,7.47-2.26,8.65-6.33Z" />
    <path class="cls-1" d="M1610.86,189.14c-1.18,4.07-5.02,6.55-8.65,6.33-4.06-.25-7.4-2.77-8.32-7.1-1.79-8.34,1.54-15.74,8.1-16.04,3.04-.14,5.92,1.34,7.7,4.31,2.2,3.66,2.39,8.35,1.18,12.5Z" />
    <path class="cls-1" d="M1603.94,39.01c-7.37,1.17-11.24-6.16-10.61-12.17.57-5.45,3.57-9.6,8.73-9.82,4.84-.21,8.7,3.5,9.44,8.85.72,5.23-1.01,12.11-7.55,13.14Z" />
    <rect class="cls-1" x="1601.48" y="47.76" width="2" height="116" />
    <path class="cls-3" d="M1568.42,12.99l4.71,6.82c-.7,1.51.78,2.97.85,4.05.29,4.56-.56,10.28-2.23,14.38-.52,1.27-3.06,2.21-1.91,4.51-1.08-.33-1.82.62-2.44.79-1.99.52-3.09,1.52-3.09,4.3l.09,117.78c0,2.52,2.99,3.06,3.85,4.09,1.71,2.06,3.76,4.77,4.61,7.22.56,1.62.97,4.18,1.08,5.91.24,4.06-.86,9.11-2.95,12.54-4.31,7.1-12.32,9.88-20.31,7.55-7.14-2.08-11.78-9.09-12.04-17.13-.25-7.7,2.32-14.06,8.44-18.77V44.56c-6.13-4.8-8.71-11.07-8.06-18.65.64-7.46,4.37-13.53,10.94-16.19,6.25-2.53,13.14-.99,18.47,3.27ZM1553.17,38.69c4.17,1.58,7.73-.47,9.9-2.83s2.94-5.51,2.78-9.13c-.25-5.76-4.53-9.84-9.8-9.73s-8.68,4.19-8.91,9.77c-.2,4.6.98,10,6.03,11.92ZM1556.48,47.76h-2v116h2V47.76ZM1564.22,189.97c3.42-7.62-.3-16.86-7.32-17.43-3.07-.25-6.25.71-7.97,3.65-2.71,4.63-2.72,10.53-.04,15.2,1.7,2.96,4.96,4.03,8.06,3.87,2.71-.15,5.71-1.81,7.26-5.28Z" />
    <path class="cls-1" d="M1564.22,189.97c-1.56,3.46-4.55,5.13-7.26,5.28-3.1.17-6.36-.9-8.06-3.87-2.68-4.67-2.67-10.57.04-15.2,1.72-2.94,4.89-3.9,7.97-3.65,7.02.57,10.74,9.81,7.32,17.43Z" />
    <path class="cls-1" d="M1553.17,38.69c-5.06-1.92-6.23-7.31-6.03-11.92.24-5.58,3.77-9.65,8.91-9.77s9.55,3.97,9.8,9.73c.16,3.62-.57,6.73-2.78,9.13s-5.73,4.41-9.9,2.83Z" />
    <rect class="cls-1" x="1554.48" y="47.76" width="2" height="116" />
    <path class="cls-3" d="M1638.41,200.56c-5.6-4.44-7.46-10.44-7.5-16.76-.05-7.44,3.48-12.87,9.58-17.03V45.21c-7.03-4.72-9.86-11.24-9.46-19.17.5-9.86,7.35-17.28,17.18-17.58s17.27,7.35,17.83,17.3c.44,7.9-2.05,14.42-8.87,19.04l-.1,122.17c6.61,4.51,9.41,10.9,8.94,18.77-.39,6.59-3.72,12.71-8.7,15.66-5.77,3.42-13.66,3.32-18.9-.84ZM1649.55,39.17c6.77-1.05,8.92-8.53,7.72-14.18-1.11-5.22-5.42-8.64-10.03-7.98-5.03.72-7.46,4.61-7.96,9.82-.58,6.05,3.05,13.45,10.28,12.34ZM1649.48,47.76h-2v116h2V47.76ZM1656.26,178.07c-1.34-3.37-4.29-5.42-7.33-5.6s-5.86,1.41-7.61,4.27c-2.75,4.5-2.78,10.5.06,15.06,1.78,2.85,5.25,3.85,8.16,3.49,6.62-.84,9.67-9.78,6.71-17.22Z" />
    <path class="cls-1" d="M1656.26,178.07c2.96,7.44-.1,16.38-6.71,17.22-2.91.37-6.38-.63-8.16-3.49-2.84-4.56-2.81-10.55-.06-15.06,1.75-2.86,4.62-4.45,7.61-4.27s5.98,2.23,7.33,5.6Z" />
    <path class="cls-1" d="M1649.55,39.17c-7.23,1.12-10.86-6.29-10.28-12.34.5-5.22,2.93-9.1,7.96-9.82,4.62-.66,8.92,2.76,10.03,7.98,1.21,5.65-.95,13.13-7.72,14.18Z" />
    <rect class="cls-1" x="1647.48" y="47.76" width="2" height="116" />
  </symbol>
  <symbol id="scw-tissue" viewBox="1759.15 15.19 196.58 199.29">
    <path class="cls-3" d="M1915.68,192.63l-117.13.04c-2.1,5.14,1.17,10.52-2.63,14.03-2.45,2.27-14.68,3.04-16.4-2.85l-1.05-17.91c-2.67-5.26-6.79-9.27-4.56-16.59-3,1.01-4.41,1.49-6.28.75-1.41-.56-2.42-2.57-2.42-4.65l-.06-78.51c0-4.45,1.85-5.98,5.55-7.9l22.34-11.55c3.24-1.68,6.8-1.06,10.79-1.16,1.91-9.83-9.05-17.22-.74-27.05,7.69-9.1,19.51-13.01,31.57-10.04,15.1-12.06,31.43-9.26,47.66-.18,10.82-.82,21.49-.85,29.65,7.36,9.61,9.66-4.15,17.82-1.89,30.66,4.35-1.02,8.16-.97,11.51.82l21.55,11.51c1.93,1.03,6.57,1.61,6.57,4.93l.02,82.92c0,2.93-4.85,3.99-7.78,2.69-.93,6.38-2,11.6-6.88,15.82v15c-.01,2.76-.58,4.55-2.06,6.05-2.1,2.13-15.02,3.07-16.78-2.61l-.55-11.59ZM1868.52,103.65l-1.26-16.92,2.53-24.83c.89-8.75,2.61-16.58,5.51-25.49-10.21-8.5-25.22-9.05-34.81.53,2.12,8.64,4.06,16.94,4.74,25.85l1.97,25.96c.39,5.07-1.47,10.13.06,14.95l21.25-.05ZM1839.75,103.61c.71-9.51-1.66-17.19-2.33-25.65l-1.3-16.3c-.63-7.94-.43-15.27-2.42-23.31-10.73-2.99-18.4-.11-24.9,9.18,3.77,7.64,5.19,14.85,5.44,22.94,5.09,3.18,7.54,8.04,7.69,13.69l.18,20.16,17.65-.72ZM1891.85,84.31c-.05-7.37,5.45-9.18,6.84-14.18l6.11-21.97c.37-1.32,1.73-2.57,1.5-3.75-.93-4.82-15.02-9.37-24.44-5.78-3.42,12.72-3.05,24.68-4.26,37.24-.91,9.42-3.52,18.24-2.3,27.93l16.68.66-.14-20.15ZM1901.01,109.73c.05,2.9,2.34,4.93-.55,6.77-5.28,3.36-6.68-3.51-15.73-3.51h-32.6s-22.47-.1-22.47-.1c-7.37-.03-11.63,7.73-16.23,3.43-1.97-1.85,1.62-18.37-.7-32.95-1.08-6.79-10.97-9.95-16.64-6.98l-21.99,11.54.1,71.46,25.67-14.22,115.06.02,25.96,14.35.05-70.98-18.91-10.73c-5.78-3.28-18.13-3.11-20.51,4.66-2.53,8.27-.67,18.25-.52,27.24ZM1918.76,183.55c6.24-.02,17.04-8.73,13.63-17.36l-19.11-11.93h-111.59s-19.73,11-19.73,11c-.18,3.25-.99,7.71.68,10.42,3.95,6.37,11.53,8.21,18.92,8.19l117.2-.32ZM1790.03,189.83h-3.17v9.81h3.17v-9.81ZM1927.12,199.27l.13-9.08c-1.39-.41-3.27.42-3.28,1.7l-.04,7.53c.47.24,1.56.35,3.19-.15Z" />
    <path class="cls-1" d="M1901.01,109.73c-.15-8.99-2.01-18.98.52-27.24,2.38-7.76,14.72-7.94,20.51-4.66l18.91,10.73-.05,70.98-25.96-14.35-115.06-.02-25.67,14.22-.1-71.46,21.99-11.54c5.67-2.98,15.56.19,16.64,6.98,2.32,14.58-1.28,31.1.7,32.95,4.59,4.3,8.85-3.47,16.23-3.43l22.47.11h32.6c9.05,0,10.45,6.86,15.73,3.5,2.9-1.84.6-3.87.55-6.77Z" />
    <path class="cls-1" d="M1918.76,183.55l-117.2.32c-7.39.02-14.97-1.82-18.92-8.19-1.68-2.71-.86-7.17-.68-10.42l19.73-10.99h111.59s19.11,11.91,19.11,11.91c3.41,8.63-7.39,17.35-13.63,17.36Z" />
    <path class="cls-1" d="M1868.52,103.65l-21.25.05c-1.53-4.82.32-9.88-.06-14.95l-1.97-25.96c-.68-8.91-2.62-17.21-4.74-25.85,9.59-9.59,24.6-9.04,34.81-.53-2.9,8.9-4.62,16.74-5.51,25.49l-2.53,24.83,1.26,16.92Z" />
    <path class="cls-1" d="M1839.75,103.61l-17.65.72-.18-20.16c-.15-5.65-2.6-10.52-7.69-13.69-.24-8.09-1.66-15.31-5.44-22.94,6.51-9.3,14.18-12.17,24.9-9.18,1.99,8.04,1.79,15.37,2.42,23.31l1.3,16.3c.67,8.47,3.04,16.14,2.33,25.65Z" />
    <path class="cls-1" d="M1891.85,84.31l.14,20.15-16.68-.66c-1.23-9.69,1.39-18.51,2.3-27.93,1.21-12.56.84-24.52,4.26-37.24,9.42-3.59,23.51.96,24.44,5.78.23,1.17-1.14,2.43-1.5,3.75l-6.11,21.97c-1.39,5.01-6.9,6.81-6.84,14.18Z" />
    <rect class="cls-1" x="1786.86" y="189.83" width="3.17" height="9.81" />
    <path class="cls-1" d="M1927.12,199.27c-1.63.5-2.72.39-3.19.15l.04-7.53c0-1.28,1.89-2.11,3.28-1.7l-.13,9.08Z" />
  </symbol>
</svg>
