<?xml version="1.0" encoding="UTF-8"?>
<svg id="Layer_1" data-name="Layer 1" xmlns="http://www.w3.org/2000/svg" viewBox="0 0 827.33 587.22">
  <defs>
    <style>
      .cls-1 {
        fill: #6e6f72;
      }

      .cls-2 {
        fill: #5bc1ad;
      }

      .cls-3 {
        fill: #6d6e71;
      }

      .cls-4 {
        fill: #fcfefe;
      }

      .cls-5 {
        fill: #6c6d70;
      }

      .cls-6 {
        fill: #fdfefe;
      }
    </style>
  </defs>
  <path class="cls-2" d="M527.73,308.36c-4.51,20.48-12.6,40.35-27.05,55.91-19.49,20.99-44.61,34-73.41,36.06-56.05,4.01-106.58-35.46-115.68-91.81-12.25-2.78-23.86-6.08-34.62-11.86-28.8-15.45-48.38-42.62-55.02-71.83-13.96-61.37,25.88-121.96,89.38-132.47,3.66-20.12,11.37-38.05,24.26-53.08,2.05-2.39,4.35-4.4,5.98-7.03,2.76-1.64,4.57-3.95,6.91-5.96,40.9-35.31,101.54-34.91,142.29.29,20.57,17.77,30.8,38.94,37.13,65.33,24.43,5.45,47.17,16.01,64.44,36.14,14.64,17.07,24.35,37.41,26.56,60.23,3.08,31.76-6,61.23-27.24,84.92-16.84,18.78-38.55,30.4-63.91,35.15ZM419.41,140.85c16.93-24.93,40.76-40.89,68.87-46.89-7.23-32.93-36.5-55.62-69.32-55.45s-61.48,22.75-68.68,55.37c28.54,6.04,52.44,22.42,69.13,46.97ZM397.23,184.92c-8-35.52-40.24-57.73-74.52-55.15-34.8,2.62-62.44,30.58-64.94,65.15s20.65,66.93,55.29,74.22c9.13-42.7,41.97-75.11,84.17-84.22ZM525.83,269.25c36.11-8.39,57.79-40.94,54.9-75.23-2.89-34.38-30.84-61.73-65.03-64.19-34.8-2.5-66.66,20.31-74.29,55.17,42.73,8.97,75.18,41.82,84.41,84.25ZM490.01,291.3c0-39.03-31.64-70.68-70.68-70.68s-70.68,31.64-70.68,70.68,31.64,70.68,70.68,70.68,70.68-31.64,70.68-70.68Z"/>
  <circle class="cls-6" cx="419.33" cy="291.3" r="70.68"/>
  <path class="cls-6" d="M397.23,184.92c-42.2,9.11-75.05,41.52-84.17,84.22-34.64-7.29-57.8-39.41-55.29-74.22s30.14-62.53,64.94-65.15c34.28-2.58,66.52,19.63,74.52,55.15Z"/>
  <path class="cls-6" d="M525.83,269.25c-9.23-42.43-41.68-75.28-84.41-84.25,7.63-34.86,39.49-57.68,74.29-55.17,34.18,2.46,62.13,29.8,65.03,64.19,2.89,34.3-18.79,66.84-54.9,75.23Z"/>
  <path class="cls-4" d="M419.41,140.85c-16.69-24.55-40.59-40.94-69.13-46.97,7.2-32.62,35.91-55.19,68.68-55.37s62.09,22.52,69.32,55.45c-28.11,6.01-51.94,21.96-68.87,46.89Z"/>
  <path class="cls-3" d="M38.78,561.19c11.03,2.84,14.18.51,22.55.99l-.09,21.76c-17.61,5.36-42.88,4.92-54.2-8.74-9.37-11.3-9.94-35.05,1.68-46.99,6.66-6.84,15.95-11.7,25.89-11.84l37.51-.52c.19-3.37.99-7.91-.8-10.88-3.75-6.21-11.29-6.84-18.01-7.05-14.53-.46-27.99.92-41.97,5.53v-24.56c16.53-5.46,33.45-7.56,51.01-6.9l12.95,1.89,40.84.14c1.02,3.45-.66,6.64-.78,9.89-.19,5.23.4,9.88-1.44,15.01l-10.87.17c2.53,6.18,3.67,12.22,3.24,18.94l.03,66.96-33.86-.19-.18-44.85-28.54.41c-3.15.04-6.71,1.73-8.21,3.4-3.32,3.69-4.43,15.45,3.26,17.43Z"/>
  <path class="cls-3" d="M531.4,561.37l9.04,1.36,12.7-1.43.12,22.94c-12.07,3.34-24.93,4.06-36.97.96-13.37-3.45-21.92-13.26-23.55-26.83-2.79-23.29,11.67-39.78,33.87-41.96l38.45-.54c.74-4.39.45-8.88-2.58-12.37-2.27-2.61-6.01-5.14-10.69-5.12l-25,.08c-7.87.03-14.89,2.36-22.47,4.88l.21-24.74,25.72-5.66c13.19-2.9,25.81-.55,38.95.71l39.02.5-.04,10.83c-.02,4.79-1.35,9-.75,13.96l-12.1.12c2.23,5.16,3.7,10.35,3.72,16.19l.3,69.73h-34.07s0-45.01,0-45.01l-26.97.19c-2.74.02-6.22,1.03-8.6,2.35-3.38,1.88-4.69,6.43-4.46,9.88s1.5,8.28,6.12,8.98Z"/>
  <path class="cls-3" d="M209.32,544.55l-.03-70.57h34.08s-.31,75.41-.31,75.41c-2.11,15.48-10.83,27.62-25.66,32.9-19.53,6.95-41.28,6.26-61.18-.17-8.19-2.64-15.22-8.28-19.47-15.39-6.09-10.17-5.95-22.19.4-31.92l7.08-7.32-7.08-7.3c-4.12-4.25-3.75-10.51-3.95-16.14-.49-13.29,6.54-23.51,18.94-28.54,12.6-5.11,26.89-4.47,40.14-.77v24.54c-4.69-1.93-9.25-.99-13.94-1.4-6.32-.55-11.36,1.09-11.98,7.64-.53,5.54,3,10.05,9.39,10.16l15.65.28c-.4,4.39.68,7.98.72,12.12l.1,10.82-15.61.25c-6.51.11-10.18,4.5-10.51,10.35-.66,11.91,15.71,12.95,29.54,10.91,8.08-1.19,13.95-7.21,13.69-15.86Z"/>
  <path class="cls-3" d="M781.29,561.39l-.03,22.84c-12.81,3.61-26.5,4.18-39.13.09s-20.11-14.94-21.25-28.12c-.88-10.18,1.22-21.18,8.51-28.36,6.76-6.66,16.29-11.37,26.2-11.5l37.45-.48c.78-4.57.7-10.46-3.07-13.27-5.22-3.89-11.35-5.4-17.67-4.43-13.42-1.08-26.02.9-39.7,5.13l-.28-24.59c25.95-7.89,65.34-12.57,84.52,6.59,6.56,6.56,8.85,14.98,10.37,24.06l.12,75.62-34.02.03v-45.02s-26.06.1-26.06.1c-3.32.01-7.34,1.16-10.07,2.72-3.84,2.19-4.13,12.81-.95,16.71,2.69,3.3,11.26,3.41,18.26,2.63l6.81-.76Z"/>
  <path class="cls-3" d="M471.32,473.98l-.25,80.35c-2.31,17-13.74,29.5-30.36,32.11-15.84,2.49-31.07-1.49-44.32-10.62-.17,3.24.32,5.79-.64,8.99l-31.46.17v-110.99s34.03,0,34.03,0l-.08,78.21c6.25,6.84,14.89,9.19,24.04,9.1,7.85-.07,13-3.55,14.89-12.04l.15-75.26,34-.02Z"/>
  <path class="cls-3" d="M305.42,584.99l-.46-72.44c-.04-7.01-4.36-13.17-10.95-14.13-12.2-1.78-23.53.58-35.41,4.65l-.21-23.91c17.42-7.49,36.31-9.44,54.46-4.84,18.28,4.64,24.21,17.82,26.36,36.04l.14,74.63h-33.92Z"/>
  <path class="cls-3" d="M666.25,515.73c-1-5.41-1.54-10.21-4.83-13.8-5.97-6.52-22.46-4.33-33.56-1.35l-8.53,2.29v-23.86c17.25-7.15,35.65-9.27,53.74-4.92,18.11,4.35,25.51,19.14,27.01,37.48l.18,73.23-33.95.2-.06-69.27Z"/>
  <path class="cls-5" d="M733.6,462.02c-1.4-8.19,1.11-15.49.66-23.05l64.99.02.07-16.01,27.83-.05.02,38.98-93.56.11Z"/>
  <path class="cls-1" fill-rule="evenodd" d="M608.89,442.49c0,14.46-11.72,26.19-26.19,26.19s-26.19-11.72-26.19-26.19,11.72-26.19,26.19-26.19,26.19,11.72,26.19,26.19ZM591.36,442.5c0-4.74-3.85-8.59-8.59-8.59s-8.59,3.85-8.59,8.59,3.85,8.59,8.59,8.59,8.59-3.85,8.59-8.59Z"/>
</svg>