<svg xmlns="http://www.w3.org/2000/svg" width="800" height="800"><path fill="none" d="M0 0h800v800H0zm269 61-1.603 1.295C228.792 93.557 201.434 138.81 193 188c-.05 1.666-.073 3.335 0 5l-2.98.445C158.61 198.407 127.07 210.086 102 230c-1.017.755-2.034 1.51-3.082 2.29-7.621 5.666-14.661 11.812-21.521 18.376a339 339 0 0 1-3.604 3.38C67.461 260.083 62.255 267.037 57 274l-1.306 1.712C24.034 317.43 9.474 373.48 15.95 425.417c7.8 54.548 35.128 106.412 79.507 139.954Q97.227 566.688 99 568l1.787 1.333C125.666 587.81 161.199 607 193 607l.371 3.398C198.715 652.758 220.915 691.545 250 722l2.645 2.805c31.052 32.098 76.174 54.237 120.574 58.789C377 784 377 784 378 785c1.376.098 2.757.128 4.137.13l2.66.009 2.89-.006 2.948.003q3.093 0 6.184-.006 4.75-.005 9.501.007 2.997 0 5.993-.004l2.89.006 2.66-.01 2.353-.002C422 785 422 785 423 784c2.769-.45 5.535-.858 8.313-1.25 21.946-3.32 42.812-9.825 62.687-19.75l3.566-1.766C516.47 751.644 532.638 738.477 548 724l2.219-2.09C579.98 693.034 600.57 651.83 607 611v-4l1.816-.133C651.953 603.199 692.392 578.374 723 549l2.5-2.375C741.05 531.508 753.084 513.18 763 494l.979-1.863C774.091 472.678 779.317 451.485 783 430l.746-3.992c8.346-50.766-8.377-106.362-37.629-147.707-6.023-8.37-12.672-16.001-19.68-23.551l-1.858-2.007C694.878 221.194 650.299 197.646 607 193l-.375-3.406c-4.86-38.482-24.444-76.042-50.555-104.336-1.854-2.023-3.62-4.093-5.383-6.195C538.656 65.314 523.549 54.413 508 45l-1.87-1.137C482.366 29.573 456.33 21.145 429 17l-3.269-.535C371.166 7.932 311.441 26.217 269 61" id="svg-layer-0" style="pointer-events: all; fill: none;"/><path fill="#5AC2AD" d="m399.25 14.625 3.913.005C416.024 14.79 428.4 16.527 441 19l2.365.437c18.64 3.492 37.17 10.448 53.78 19.55a365 365 0 0 0 5.82 3.091c13.157 7.008 24.983 15.764 35.887 25.926 1.958 1.82 3.971 3.533 6.023 5.246 16.026 14.103 28.9 32.104 39.125 50.75l1.005 1.81C595.623 145.187 607 170.634 607 193l3.086.48C641.91 198.635 671.899 210.963 698 230l1.734 1.263c7.292 5.38 14.075 11.248 20.703 17.424l1.971 1.835c39.356 37.314 60.79 90.773 62.865 144.501C786.512 450.327 765.68 503.672 728 544l-1.604 1.721C718.566 554.028 710.15 561.197 701 568l-1.69 1.284C674.818 587.88 638.57 607 607 607l-.367 3.918c-2.865 25.57-13.575 52.65-27.633 74.082l-1.793 2.805C556.755 719.238 529.287 744.665 496 762l-2.305 1.208c-21.034 10.793-44.626 18.044-68.16 20.468C423 784 423 784 422 785a59 59 0 0 1-4.137.13l-2.66.009-2.89-.006-2.948.003q-3.093 0-6.184-.006-4.75-.005-9.501.007-2.997 0-5.993-.004l-2.89.006-2.66-.01-2.353-.002C378 785 378 785 377 784a277 277 0 0 0-5.825-.899C336.3 778.18 303.24 765.204 275 744l-2.777-2.078c-6.215-4.83-12.024-10.124-17.743-15.525a676 676 0 0 0-4.23-3.948C221.8 695.2 203.75 657.981 195 620l-.57-2.391c-.185-.79-.37-1.58-.559-2.394l-.506-2.157C193 611 193 611 193 607l-2.219-.191C147.501 601.914 107.926 578.679 77 549l-2.5-2.375c-30.345-29.502-50.91-71.581-57.125-113.25l-.367-2.328c-3.433-22.311-3.006-44.85.992-67.047l.422-2.445C25.814 319.53 46.793 282.638 76 252l2.082-2.207C108.179 218.716 150.617 199.333 193 193l.371-3.926C197.238 154.608 214.533 120.732 236 94l1.244-1.551C248.12 78.979 260.09 67.306 274 57l1.754-1.316C284.117 49.429 292.741 43.849 302 39l2.063-1.09C325.124 26.953 347.66 20.865 371 17l3.35-.562c8.328-1.303 16.473-1.824 24.9-1.813M296.375 135.688C283.733 150.208 267.558 174.985 268 195l1.737.513C308.662 207.096 341.477 222.85 371 251l2.734 2.54c8.984 8.593 16.854 18.473 23.52 28.972L399 285h2a129 129 0 0 0 4.438-6.187C418.812 259.65 434.968 243.548 454 230l1.938-1.386c20.387-14.446 42.614-23.916 66.683-30.387 3.23-.875 6.309-1.878 9.379-3.227-3.22-23.102-16.75-48.354-34-64-5-5-5-5-6.3-6.477-19.517-21.281-53.854-34.274-82.27-35.647-44.61-1.26-82.23 14.502-113.055 46.811M122.938 309.25C117.693 315.136 113.3 321.413 109 328l-1.613 2.344c-17.76 27.19-22.847 65.08-16.36 96.492C93.933 439.617 97.966 451.356 104 463l1.77 3.484c17.573 32.706 48.301 54.35 83.222 65.239 2.522.348 4.554-.112 7.008-.723l.848-3.488c7.43-29.815 19.8-57.472 39.152-81.512l2.477-3.094c15.491-19 33.596-34.214 54.523-46.906l3.313-2.047c15.432-9.217 32.056-14.965 49.188-20.178 3.854-1.195 7.678-2.479 11.499-3.775-7.641-34.48-28.022-64.15-57.445-83.777-57.475-36.433-130.279-26.24-176.617 23.027m351.449-1.043C460.205 323.685 443 349.251 443 371l3.559.883c16.54 4.178 32.188 9.44 47.441 17.117l1.915.961C514.545 399.406 530.94 411.598 546 426l2.809 2.648C577.907 456.798 594.456 493.481 605 532c5.498-.53 10.337-1.55 15.5-3.562l2.07-.796c36.362-14.337 62.65-40 78.29-75.598 5.891-13.82 9.653-28.994 10.14-44.044l.121-3.621C711.884 369.634 700.313 337.6 678 311l-1.54-1.945c-1.105-1.391-2.275-2.73-3.46-4.055h-2v-2c-23.068-24.493-57.978-37.541-91-39-40.27-1.1-77.922 15.205-105.613 44.207M297.57 485.251c-22.983 25.583-35.076 60.544-33.891 94.808 1.908 34.312 15.059 64.72 38.32 89.941l2.082 2.297c22.341 23.517 56.749 37.777 88.95 38.988 39.747.855 75.193-12.757 104.054-40.308 24.724-24.592 38.557-59.99 39.164-94.664-.457-38.837-15.664-71.705-42.125-99.5-28.036-26.965-63.481-37.44-101.625-37.028-36.599.732-70.339 19.072-94.929 45.466" id="svg-layer-1" style="pointer-events: all;"/><path fill="#ffffff" d="M482.882 467.44c3.834 3.051 7.498 6.26 11.118 9.56l2.227 2.012c26.2 24.894 39.077 61.017 40.148 96.55-.953 32.71-11.88 63.648-33.375 88.438l-2.227 2.664C478.76 692.121 445.373 708.053 412 711c-36.085 1.954-71.164-7.288-99-31l-2.629-2.207C282.971 653.995 267.125 621.042 264 585c-2.306-35.758 8.985-70.397 32.242-97.625A292 292 0 0 1 303 480l2.074-2.27c45.779-48.317 126.438-49.623 177.808-10.29M313.383 296.785A659 659 0 0 1 317 300l1.581 1.41c18.8 17.05 33.03 41.763 38.419 66.59l-1 3c-2.028.824-2.028.824-4.723 1.473l-3.034.77c-1.09.27-2.182.54-3.305.82-33.738 8.957-64.531 26.033-89.496 50.525a357 357 0 0 1-4.294 4.111c-26.822 25.879-43.229 59.587-53.456 94.956A194 194 0 0 1 195 532c-6.473-.54-11.958-2.155-18-4.5-.918-.355-1.835-.71-2.781-1.074C146.838 515.537 125.137 496.43 109 472l-1.621-2.352c-17.74-27.21-22.842-65.059-16.352-96.484C93.933 360.383 97.966 348.644 104 337l1.77-3.484c16.97-31.583 46.486-53.476 80.293-64.168 43.83-13.098 92.743-2.299 127.32 27.437M666.047 299.188C668 301 668 301 671 303v2h2c11.458 10.456 19.736 25.017 26 39l1.648 3.57c14.235 32.876 13.671 70.677.6 103.765C695.692 464.778 688.605 477.017 679 488l-2.523 2.926C658.627 511.243 634.978 524.886 609 532h-4l-.7-2.36c-17.733-59.488-49.998-107.645-105.051-138.382-17.5-9.459-36.798-16.194-56.249-20.258.55-6.053 1.863-11.258 4-16.937l.932-2.489c6.924-17.93 16.883-32.603 30.068-46.574l2.04-2.234C500.291 281.376 529.128 268.94 558 265l3.137-.43c37.636-3.951 77.406 8.423 104.91 34.618M486.656 120.031 489 122l2.156 1.781C510.55 140.191 526.987 166.79 532 192a58 58 0 0 1-1 4l-3.488.848C489.658 206.278 457.209 224.1 429 251l-2.734 2.54c-8.984 8.593-16.854 18.473-23.52 28.972L401 285h-2a129 129 0 0 1-4.437-6.187C366.214 238.2 325.144 211.812 278 198q-3.094-.937-6.187-1.875L268 195c.553-5.633 1.59-10.616 3.5-15.937l.79-2.207c12.81-34.402 38.94-61.27 72.085-76.465 47.34-20.903 102.385-13.186 142.281 19.64" id="svg-layer-2" style="pointer-events: all; fill: rgb(255, 255, 255);"/></svg>