<?xml version="1.0" encoding="UTF-8"?>
<svg id="Layer_1" data-name="Layer 1" xmlns="http://www.w3.org/2000/svg" viewBox="0 0 607.42 315.18">
  <defs>
    <style>
      .cls-1 {
        fill: #6f7073;
      }

      .cls-2 {
        fill: #fff;
      }

      .cls-3 {
        fill: #5dc3ae;
      }
    </style>
  </defs>
  <g>
    <path class="cls-3" d="M242.41,242.38c-6.51,42.15-42.67,72.78-84.81,72.8-41.96.02-78.4-30.64-84.77-72.82C30.84,236.03.06,199.79,0,157.68c-.06-42.14,30.72-78.52,72.8-84.88C79.14,30.92,115.2.19,157.2,0c42-.19,78.72,30.36,85.15,72.82,41.73,6.33,72.64,42.23,72.84,84.42.2,41.9-30.21,78.62-72.77,85.14ZM157.61,110.55c12.75-19.2,31.85-32.16,54.2-36.92-5.85-25.92-28.69-43.62-54.63-43.48-25.56.14-48.21,17.8-53.94,43.42,22.45,4.7,41.58,17.8,54.37,36.99ZM140.03,145.38c-6.21-27.61-31.53-45.37-58.66-43.29s-48.81,23.71-51.04,50.76c-2.27,27.54,15.73,52.74,43.3,58.98,7.04-33.38,32.9-59.32,66.4-66.44ZM241.58,211.84c27.6-6.26,45.46-31.6,43.17-59.03-2.26-27.15-24.16-48.75-51.33-50.7-27.33-1.96-52.38,16.18-58.32,43.27,33.67,7.1,59.55,33.23,66.48,66.46ZM213.19,229.35c0-30.72-24.91-55.63-55.63-55.63s-55.63,24.91-55.63,55.63,24.91,55.63,55.63,55.63,55.63-24.91,55.63-55.63Z"/>
    <circle class="cls-2" cx="157.56" cy="229.35" r="55.63"/>
    <path class="cls-2" d="M140.03,145.38c-33.51,7.13-59.37,33.06-66.4,66.44-27.56-6.23-45.57-31.44-43.3-58.98,2.23-27.05,23.84-48.66,51.04-50.76s52.45,15.68,58.66,43.29Z"/>
    <path class="cls-2" d="M241.58,211.84c-6.92-33.23-32.8-59.36-66.48-66.46,5.94-27.1,30.98-45.23,58.32-43.27,27.17,1.95,49.07,23.55,51.33,50.7,2.29,27.43-15.57,52.77-43.17,59.03Z"/>
    <path class="cls-2" d="M157.61,110.55c-12.79-19.18-31.92-32.29-54.37-36.99,5.73-25.62,28.38-43.28,53.94-43.42,25.94-.14,48.77,17.57,54.63,43.48-22.34,4.76-41.45,17.72-54.2,36.92Z"/>
  </g>
  <g>
    <g>
      <polygon class="cls-1" points="391.6 239.48 405.99 239.47 394.78 281.9 381.42 281.94 374.22 260.73 366.89 281.94 353.34 281.93 342.13 239.48 356.5 239.45 362.18 263.58 368.07 245.47 368.19 239.46 379.19 239.51 386.1 263.26 391.6 239.48"/>
      <path class="cls-1" d="M457.16,267.73c-3.21,14.68-20.47,16.83-33.57,13.54-6.9-1.73-11.85-6.87-13.25-13.71-2.42-11.8.91-24.01,12.87-27.31,6.68-1.84,13.83-1.84,20.54-.16,12.5,3.13,16.04,15.64,13.41,27.64ZM441.09,268.26c2.78-4.25,2.69-10.86.09-14.96-1.86-2.93-5.77-2.99-8.72-2.9-3.92.12-6.79,2.33-7.53,6.1-.54,2.78-.56,5.63-.01,8.41.75,3.78,3.59,6.01,7.55,6.1,2.78.06,6.69.21,8.62-2.74Z"/>
      <path class="cls-1" d="M510.66,267.73c-3.22,14.69-20.49,16.83-33.58,13.54-6.73-1.69-11.66-6.64-13.15-13.31-2.64-11.83.7-24.38,12.77-27.71,6.69-1.84,13.82-1.84,20.54-.16,12.51,3.12,16.04,15.65,13.41,27.64ZM486.72,271.06c2.94-.04,6.39-.24,8-2.92,2.53-4.21,2.62-10.67-.04-14.85-1.84-2.89-5.77-3.01-8.71-2.9-3.92.14-6.8,2.33-7.53,6.11-.54,2.78-.56,5.63,0,8.41.78,3.97,3.87,6.21,8.3,6.15Z"/>
      <path class="cls-1" d="M543.31,271.11l-.02,9.94c-4.93,1.68-10.37,2.05-15.6.58-3.95-1.11-6.6-4.98-6.61-9.32l-.2-51.35h14.66s0,47.78,0,47.78c.1,1.76,1.11,2.86,2.85,2.93s3.19-.2,4.91-.56Z"/>
    </g>
    <g>
      <path class="cls-1" d="M433.67,167.73c-3.2,14.68-20.51,16.84-33.58,13.55-6.89-1.74-11.85-6.86-13.25-13.72-2.42-11.81.89-23.97,12.88-27.31,6.54-1.82,13.53-1.8,20.14-.27,12.78,2.97,16.47,15.54,13.81,27.75ZM409.72,171.04c2.94-.03,6.39-.23,8-2.91,2.53-4.21,2.62-10.67-.04-14.85-1.84-2.89-5.77-3-8.71-2.9-3.92.14-6.8,2.34-7.53,6.11-.54,2.78-.56,5.64-.01,8.41.79,3.99,3.86,6.19,8.3,6.14Z"/>
      <path class="cls-1" d="M552.06,168.15c-3.43,14.35-20.51,16.36-33.47,13.13-6.9-1.72-11.85-6.87-13.25-13.71-2.42-11.8.91-24,12.87-27.31,6.67-1.85,13.83-1.84,20.54-.16,12.66,3.16,16.17,16.08,13.31,28.05ZM536.09,168.26c2.78-4.25,2.69-10.86.09-14.96-1.85-2.92-5.78-3-8.72-2.9-3.92.13-6.8,2.34-7.53,6.1-.54,2.78-.56,5.63,0,8.41.74,3.76,3.6,6.01,7.55,6.09,2.79.06,6.69.21,8.62-2.74Z"/>
      <path class="cls-1" d="M590.25,150.37c-4.8-1.99-9.88-.36-13.22,3.15v28.42s-14.62,0-14.62,0v-42.49s13.55,0,13.55,0l.56,3.55c6.45-3.76,13.86-5.07,21.18-3.4s9.62,7.64,9.7,14.86l.02,27.48h-14.62s-.04-26.79-.04-26.79c-.23-1.76-.57-3.97-2.51-4.78Z"/>
      <g>
        <path class="cls-1" d="M469.06,171.1l.1,9.7c-5.06,1.83-10.49,2.18-15.83,1.17-5.64-1.06-9.94-5.64-10.01-11.45l-.22-20.02-5.8-.08v-10.94s5.83-.06,5.83-.06v-8.94s14.51-3.86,14.51-3.86l.06,12.81,10.32.03-.62,10.98-9.73.04.09,16.96c.01,2.18,1.45,3.89,3.5,4.19,2.51.42,4.49.26,7.8-.53Z"/>
        <path class="cls-1" d="M500.56,171.09l.1,9.71c-5.19,1.84-10.78,2.24-16.22,1.08s-9.55-5.72-9.61-11.36l-.22-20.02-5.8-.08-.03-10.94,5.87-.06v-8.94s14.5-3.87,14.5-3.87l.06,12.82,10.36.03-.64,10.98-9.74.03.09,16.96c.01,2.17,1.45,3.9,3.5,4.18,2.51.44,4.49.26,7.8-.54Z"/>
      </g>
      <path class="cls-1" d="M357.86,155.47c-2.17,6.46-.55,14.23,6.35,15.77,5.79,1.29,11.65.66,17.47-1.97l.1,10.76c-13.18,4.48-32.73,4.06-38.04-9.83-2.05-5.37-2.07-11.16-.73-16.68,1.19-4.91,4.39-8.76,8.74-11.25,7.81-4.48,21.47-4.51,29.89-.5v10.3c-6.02-2.76-12.21-3.24-18.2-1.71-2.68.82-4.69,2.45-5.58,5.1Z"/>
    </g>
    <g>
      <path class="cls-1" d="M514.88,52.49l.04,29.45h-13.6s-.1-27.7-.1-27.7c0-1.33-.58-2.78-1.33-3.5-2.64-2.53-8.27-1.01-11.7,2.76l-.02,28.46-14.26-.03v-42.48s13.52,0,13.52,0l.58,3.68c7.07-4.82,19.91-6.77,24.58.37,5.15-3.6,11.03-4.92,17.34-4.55,8.63.51,12.38,5.8,12.71,14.33l.05,28.67h-14.54s0-26.99,0-26.99c-.14-1.85-.75-3.5-2.18-4.58-3.71-1.61-7.75-.97-11.09,2.11Z"/>
      <path class="cls-1" d="M379.81,68.45c1.01,16.58-23.2,15.75-36.97,11.57v-11.29c6.49,2.59,21.14,4,21.86.97.22-.93-.25-1.99-1.26-2.34l-10.42-3.56c-3.46-1.18-7.02-2.68-9.15-5.84-2.58-3.84-2.35-9.47.3-13.22,5.35-7.58,22.64-6.59,32.31-3.84v10.89c-6.32-2.75-19.34-3.32-19.41-.09-.02.75.43,1.55,1.32,1.83l7.24,2.25c7.71,2.4,13.68,4.27,14.19,12.68Z"/>
      <polygon class="cls-1" points="395.33 81.96 395.29 49.98 388.94 49.97 390.21 39.43 409.8 39.46 409.81 81.94 395.33 81.96"/>
      <rect class="cls-1" x="394.04" y="21.45" width="15.88" height="11"/>
      <path class="cls-1" d="M422.23,77.29c-3.79-4.94-3.49-12.48.33-17.11,2.81-3.41,7.08-5.04,11.37-5.08l15.29-.16c.55-2.86-1.21-4.97-4.01-5.41-6.77-1.08-13.47-.34-20.36,1.47l-.05-9.31c8.65-2.81,18.03-3.83,26.92-1.62,6.62,1.64,11.44,6.66,11.47,13.47l.14,28.41h-12.82s-.73-3.54-.73-3.54c-7.14,5.38-21.96,6.17-27.54-1.11ZM449.34,69.24l-.06-5.79-11.29.1c-3.26.03-5.32,2.1-5.21,5.13.1,2.77,2.17,4.43,5.2,4.64,4.22.28,8.58-.6,11.37-4.08Z"/>
    </g>
  </g>
</svg>