<?xml version="1.0" encoding="utf-8"?>
<!-- Generator: Adobe Illustrator 30.5.1, SVG Export Plug-In . SVG Version: 9.03 Build 0)  -->
<svg version="1.1" id="Layer_1" xmlns="http://www.w3.org/2000/svg" xmlns:xlink="http://www.w3.org/1999/xlink" x="0px" y="0px"
	 viewBox="0 0 826.5 586.26" style="enable-background:new 0 0 826.5 586.26;" xml:space="preserve">
<g>
	<path style="fill:#5BC2AD;" d="M526.47,307.34c-8.11,53.14-53.84,92.25-107.38,92.34c-53.35,0.09-99.55-38.89-107.6-92.38
		c-52.99-7.96-92.2-53.68-92.39-107.11s38.86-99.79,92.34-107.85C319.41,39.35,365.23,0.13,418.63,0s99.73,39.07,107.76,92.37
		c53.12,8.05,92.11,53.72,92.37,106.97c0.27,53.23-38.37,99.73-92.3,107.99L526.47,307.34z M418.96,140.31
		c15.96-24.04,40.04-40.81,68.67-46.87c-7.05-32.27-35.79-55.09-68.51-55.19s-61.69,22.28-69.06,55.07
		c28.35,5.96,52.74,22.62,68.9,46.98V140.31z M396.63,184.38c-8.14-35.42-40.45-57.78-74.94-54.83
		c-34.6,2.96-61.83,30.78-64.2,65.36c-2.38,34.68,20.9,66.24,55.04,73.62C321.54,225.9,354.69,193.38,396.63,184.38z M525.41,268.58
		c34.53-7.74,57.58-39.63,54.79-74.48c-2.76-34.45-30.3-61.86-64.69-64.55c-34.87-2.72-66.75,20.47-74.31,54.89
		c42.39,8.85,75.38,42,84.21,84.13V268.58z M489.4,290.86c0-38.94-31.56-70.5-70.5-70.5s-70.5,31.56-70.5,70.5s31.56,70.5,70.5,70.5
		S489.4,329.8,489.4,290.86z"/>
	<circle style="fill:#FFFFFF;" cx="418.9" cy="290.86" r="70.5"/>
	<path style="fill:#FFFFFF;" d="M396.63,184.38c-41.95,9-75.1,41.52-84.1,84.15c-34.15-7.37-57.42-38.94-55.04-73.62
		c2.37-34.58,29.6-62.39,64.2-65.36C356.18,126.6,388.49,148.96,396.63,184.38z"/>
	<path style="fill:#FFFFFF;" d="M525.41,268.58c-8.83-42.14-41.82-75.29-84.21-84.13c7.56-34.42,39.45-57.62,74.31-54.89
		c34.39,2.69,61.93,30.09,64.69,64.55c2.8,34.85-20.25,66.74-54.79,74.48L525.41,268.58z"/>
	<path style="fill:#FEFFFF;" d="M418.96,140.31c-16.16-24.36-40.54-41.02-68.9-46.98c7.37-32.79,36.29-55.17,69.06-55.07
		s61.46,22.91,68.51,55.19c-28.63,6.06-52.71,22.83-68.67,46.87L418.96,140.31z"/>
	<g>
		<g>
			<path style="fill:#6D6E71;" d="M470.48,474.17l-0.02,73.3c0,4.95-0.83,9.48-2.13,14.02c-2.41,8.45-7.84,15.25-15.36,19.65
				c-6.49,3.8-13.57,5.03-21.13,5.11c-13.06,0.15-25.29-3.65-35.83-11.51l-1.22,9.44h-30.55v-109.99l33-0.04v77.98
				c8.05,7.17,17.26,10.51,28.03,8.95c7.13-1.04,11.05-6.36,11.92-13.57l0.05-73.34h33.22L470.48,474.17z"/>
			<g>
				<path style="fill:#6D6E71;" d="M209.14,544.89l0.12-70.95h33l-0.13,71.85c-0.01,6.52-1.87,12.74-4.68,18.39
					c-12.22,24.58-53.82,25.11-77.94,18.32c-8.98-2.53-16.5-7.13-22.08-14.53c-8.1-13.72-6.75-32.22,7.72-40.93
					c-8.24-4.79-12.35-13.2-12.2-22.49c0.26-16.27,7.83-25.83,23.29-30.7c11.65-2.93,23.73-2.57,35.5,0.99l0.03,23.37
					c-6.51-1.36-13.05-2.23-19.53-0.82c-4.25,0.92-6.88,4.36-6.48,8.67c-0.13,2.75,0.65,5.12,2.48,7.19
					c2.45,1.22,5.27,2.36,8.1,2.37l13.99,0.07l1.24,22.43l-13.91,0.17c-3.4,0.04-7.15,0.95-9.56,3.5
					c-3.64,3.84-3.93,10.45-0.51,14.52c4.92,5.84,20.85,5.97,29.34,3.83C204.03,558.35,209.13,552.78,209.14,544.89L209.14,544.89z"
					/>
				<path style="fill:#6D6E71;" d="M60.2,561.4l0.09,21.95c-20.14,5.53-50.16,4.7-57.89-16.79c-2.72-7.56-3-15.6-1.46-23.45
					c3.53-18.04,21.05-26.95,38.46-27.03l33.37-0.15l-0.12-6.26c-0.1-4.95-3.55-8.97-8.15-10.74c-3.78-1.45-7.74-1.8-11.85-2.19
					c-13.9-0.4-27.25,1.33-41.11,5.63l-0.05-23.68c13.54-4.33,27.23-6.38,41.36-6.8c7.46-0.02,14.33,0.6,21.57,2.05h40.89
					l-1.65,24.51h-11.91c2.79,5.38,3.45,10.53,4,16.39l0.02,69.34H72.76v-45.02l-25.15,0.1c-4.28,0.02-8.4,0.95-12.06,2.93
					c-2.77,2.61-3.61,6.13-3.24,9.88c-0.41,4.85,2.63,8.85,7.4,9.68c6.59,1.44,12.78,1.09,20.5-0.34L60.2,561.4z"/>
				<path style="fill:#6D6E71;" d="M305.26,515.47c-0.77-9.04-2.7-15.71-11.39-17.97c-4.63-0.94-9.2-0.96-14.02-0.58
					c-7.26,0.9-13.99,2.72-21.09,5.23l-0.02-23.34c12.36-5.13,25.61-7.52,39.1-6.77c16.76,0.99,31.19,5.98,37.19,22.38
					c2.25,6.14,2.86,12.23,3.21,18.9l0.03,70.86h-33.02v-68.7L305.26,515.47z"/>
			</g>
		</g>
		<g>
			<path style="fill:#6D6E71;" d="M780.78,583.41c-22.21,6.01-52.85,3.98-58.72-21.06c-3.94-16.81,0.45-33.84,16.7-41.45
				c6.59-3.09,13.66-4.8,21.14-4.83l33.36-0.14l-0.14-6.65c-0.2-9.29-10.83-12.31-19.99-12.54c-14.04-0.45-27.7,1.5-41.14,5.62
				v-23.72c15.78-4.8,31.89-7.18,48.32-6.64c27.55,1.61,44.98,12.68,46.18,41.63v70.55h-33.24v-45.02l-25.16,0.08
				c-3.87,0.01-7.59,0.97-11.05,2.44c-3.19,2.33-4.42,5.97-4,9.86c-0.49,5,2.24,9.08,7.17,10.19c6.66,1.44,13.28,1.08,20.51-0.39
				l0.05,22.06L780.78,583.41z"/>
			<polygon style="fill:#6C6D70;" points="732.92,460.93 734.48,438.67 799.2,438.67 799.3,422.67 825.99,422.67 826,460.94 			"/>
		</g>
		<path style="fill:#909294;" d="M620.52,501.69l-0.9,0.35c-0.17,0.05-0.14-0.3-0.14-0.5L620.52,501.69L620.52,501.69z"/>
		<path style="fill:#6D6E71;" d="M552.7,561.4l0.09,21.95c-20.14,5.53-50.16,4.7-57.89-16.79c-2.72-7.56-3-15.6-1.46-23.45
			c3.53-18.04,21.05-26.95,38.46-27.03l33.37-0.15l-0.12-6.26c-0.1-4.95-3.55-8.97-8.15-10.74c-3.78-1.45-7.74-1.8-11.85-2.19
			c-13.9-0.4-27.25,1.33-41.11,5.63l-0.05-23.68c13.54-4.33,27.23-6.38,41.36-6.8c7.46-0.02,14.33,0.6,21.57,2.05h40.89l-1.65,24.51
			h-11.91c2.79,5.38,3.45,10.53,4,16.39l0.02,69.34h-33.01v-45.02l-25.15,0.1c-4.28,0.02-8.4,0.95-12.06,2.93
			c-2.77,2.61-3.61,6.13-3.24,9.88c-0.41,4.85,2.63,8.85,7.4,9.68c6.59,1.44,12.78,1.09,20.5-0.34L552.7,561.4z"/>
		<path style="fill:#6D6E71;" d="M620.52,501.69l-1.04-0.15l0.05-22.76c17.17-6.98,35.8-8.97,53.54-4.51
			c18.74,4.72,25.52,20.37,25.92,38.87l0.02,71.04H666v-68.55c-0.58-8.58-2.72-16.06-11.24-18.02c-11.33-2.61-23.49,0.68-34.24,4.09
			V501.69z"/>
		<path style="fill:#6E6F72;" d="M580.57,467.02c-9.17-0.57-17.32-5.16-21.6-13.04c-4-7.39-3.98-16.44,0-23.81
			c4.46-8.25,13.08-12.82,22.35-13.12s16.65,3,22.21,10c6.73,8.48,6.79,21.55,0.02,30c-5.7,7.12-13.68,10.55-22.99,9.97H580.57z
			 M590.71,442.07c0-4.63-3.75-8.38-8.38-8.38s-8.38,3.75-8.38,8.38s3.75,8.38,8.38,8.38S590.71,446.7,590.71,442.07z"/>
	</g>
</g>
</svg>
