<?xml version="1.0" encoding="UTF-8"?>
<svg id="Layer_1" data-name="Layer 1" xmlns="http://www.w3.org/2000/svg" viewBox="0 0 826.5 586.26">
  <defs>
    <style>
      .cls-1 {
        fill: #6e6f72;
      }

      .cls-2 {
        fill: #fff;
      }

      .cls-3 {
        fill: #5bc2ad;
      }

      .cls-4 {
        fill: #6d6e71;
      }

      .cls-5 {
        fill: #909294;
      }

      .cls-6 {
        fill: #6c6d70;
      }

      .cls-7 {
        fill: #feffff;
      }

      .cls-8 {
        fill: #fdfdfd;
      }
    </style>
  </defs>
  <path class="cls-2" d="M526.47,307.34c53.92-8.27,92.56-54.76,92.3-107.99-.27-53.25-39.25-98.92-92.37-106.97C518.37,39.07,472.25-.13,418.63,0s-99.22,39.35-107.2,92.34c-53.48,8.06-92.53,54.47-92.34,107.85s39.4,99.15,92.39,107.11c8.05,53.48,54.26,92.47,107.6,92.38,53.54-.09,99.27-39.19,107.38-92.34ZM580.57,467.02c9.3.57,17.28-2.86,22.99-9.97,6.78-8.45,6.72-21.52-.02-30-5.56-7-13.4-10.28-22.21-10-9.27.3-17.89,4.87-22.35,13.12-3.99,7.37-4.01,16.43,0,23.81,4.28,7.89,12.43,12.48,21.6,13.04ZM732.92,460.93h93.07s0-38.27,0-38.27h-26.69s-.1,16-.1,16h-64.72s-1.55,22.26-1.55,22.26ZM60.2,561.4c-7.72,1.43-13.91,1.78-20.5.34-4.77-.83-7.81-4.84-7.4-9.68-.37-3.75.47-7.27,3.24-9.88,3.66-1.98,7.79-2.91,12.06-2.93l25.15-.1v45.02s33.01,0,33.01,0l-.02-69.34c-.56-5.86-1.21-11.01-4-16.38h11.91s1.65-24.52,1.65-24.52h-40.89c-7.24-1.46-14.11-2.08-21.57-2.06-14.13.42-27.82,2.47-41.36,6.8l.05,23.68c13.86-4.3,27.22-6.04,41.11-5.63,4.11.39,8.07.74,11.85,2.19,4.59,1.77,8.05,5.78,8.15,10.74l.12,6.26-33.37.15c-17.41.08-34.93,8.99-38.46,27.03-1.54,7.86-1.26,15.89,1.46,23.45,7.73,21.49,37.75,22.32,57.89,16.79l-.09-21.95ZM209.14,544.89c-.01,7.89-5.12,13.46-12.21,15.25-8.5,2.15-24.42,2.02-29.34-3.83-3.43-4.07-3.13-10.67.51-14.52,2.41-2.55,6.16-3.46,9.56-3.5l13.91-.17-1.24-22.43-13.99-.07c-2.83-.01-5.65-1.15-8.1-2.37-1.83-2.07-2.61-4.44-2.48-7.19-.4-4.31,2.23-7.75,6.48-8.67,6.49-1.41,13.02-.54,19.53.82l-.03-23.37c-11.76-3.57-23.85-3.92-35.5-.99-15.46,4.87-23.03,14.43-23.29,30.7-.15,9.29,3.97,17.7,12.2,22.49-14.48,8.7-15.83,27.21-7.72,40.93,5.58,7.39,13.09,12,22.08,14.53,24.13,6.79,65.72,6.26,77.94-18.32,2.81-5.65,4.66-11.87,4.68-18.39l.13-71.86h-33s-.12,70.97-.12,70.97ZM305.26,515.47v68.71s33.01-.01,33.01-.01l-.03-70.86c-.35-6.67-.96-12.75-3.21-18.9-6-16.4-20.43-21.39-37.19-22.38-13.48-.74-26.73,1.64-39.1,6.77l.02,23.34c7.1-2.51,13.83-4.33,21.09-5.23,4.82-.38,9.39-.36,14.02.58,8.69,2.26,10.61,8.93,11.39,17.97ZM552.7,561.4c-7.72,1.43-13.91,1.78-20.5.34-4.77-.83-7.81-4.84-7.4-9.68-.37-3.75.47-7.27,3.24-9.88,3.66-1.98,7.79-2.91,12.06-2.93l25.15-.1v45.02s33.01,0,33.01,0l-.02-69.34c-.56-5.86-1.21-11.01-4-16.38h11.91s1.65-24.52,1.65-24.52h-40.89c-7.24-1.46-14.11-2.08-21.57-2.06-14.13.42-27.82,2.47-41.36,6.8l.05,23.68c13.86-4.3,27.22-6.04,41.11-5.63,4.11.39,8.07.74,11.85,2.19,4.59,1.77,8.05,5.78,8.15,10.74l.12,6.26-33.37.15c-17.41.08-34.93,8.99-38.46,27.03-1.54,7.86-1.26,15.89,1.46,23.45,7.73,21.49,37.75,22.32,57.89,16.79l-.09-21.95ZM619.47,501.54c0,.2-.02.55.14.5l.9-.35c10.75-3.41,22.91-6.7,34.24-4.09,8.52,1.96,10.67,9.44,11.24,18.02v68.55s33.01,0,33.01,0l-.02-71.04c-.39-18.5-7.18-34.15-25.92-38.87-17.74-4.46-36.37-2.47-53.54,4.51l-.05,22.76ZM780.78,583.41l-.05-22.06c-7.23,1.47-13.85,1.82-20.51.39-4.93-1.11-7.66-5.19-7.17-10.19-.42-3.89.82-7.53,4-9.86,3.46-1.47,7.17-2.43,11.05-2.44l25.15-.08v45.02s33.24,0,33.24,0v-70.55c-1.2-28.96-18.62-40.02-46.18-41.63-16.43-.54-32.54,1.84-48.33,6.64v23.72c13.44-4.12,27.1-6.07,41.14-5.62,9.15.22,19.79,3.25,19.99,12.54l.14,6.65-33.36.14c-7.48.03-14.55,1.74-21.14,4.83-16.25,7.61-20.64,24.65-16.7,41.45,5.87,25.04,36.51,27.07,58.72,21.06ZM470.48,474.17h-33.22s-.05,73.34-.05,73.34c-.87,7.21-4.79,12.53-11.92,13.57-10.77,1.57-19.98-1.78-28.04-8.95v-77.98s-33,.04-33,.04v109.98s30.55,0,30.55,0l1.22-9.44c10.54,7.86,22.77,11.66,35.83,11.51,7.56-.09,14.63-1.31,21.13-5.11,7.52-4.4,12.95-11.2,15.36-19.65,1.29-4.54,2.12-9.08,2.13-14.02l.02-73.3Z"/>
  <path class="cls-3" d="M526.47,307.34c-8.11,53.14-53.84,92.25-107.38,92.34-53.35.09-99.55-38.89-107.6-92.38-52.99-7.96-92.2-53.68-92.39-107.11s38.86-99.79,92.34-107.85C319.41,39.35,365.23.13,418.63,0s99.73,39.07,107.76,92.37c53.12,8.05,92.11,53.72,92.37,106.97.27,53.23-38.37,99.73-92.3,107.99ZM418.96,140.31c15.96-24.04,40.04-40.81,68.67-46.87-7.05-32.27-35.79-55.09-68.51-55.19s-61.69,22.28-69.06,55.07c28.35,5.96,52.74,22.62,68.9,46.98ZM396.63,184.38c-8.14-35.42-40.45-57.78-74.94-54.83-34.6,2.96-61.83,30.78-64.2,65.36-2.38,34.68,20.9,66.24,55.04,73.62,9.01-42.63,42.16-75.15,84.1-84.15ZM525.41,268.58c34.53-7.74,57.58-39.63,54.79-74.48-2.76-34.45-30.3-61.86-64.69-64.55-34.87-2.72-66.75,20.47-74.31,54.89,42.39,8.85,75.38,42,84.21,84.13ZM489.4,290.86c0-38.94-31.56-70.5-70.5-70.5s-70.5,31.56-70.5,70.5,31.56,70.5,70.5,70.5,70.5-31.56,70.5-70.5Z"/>
  <circle class="cls-2" cx="418.9" cy="290.86" r="70.5"/>
  <path class="cls-2" d="M396.63,184.38c-41.95,9-75.1,41.52-84.1,84.15-34.15-7.37-57.42-38.94-55.04-73.62,2.37-34.58,29.6-62.39,64.2-65.36,34.49-2.95,66.8,19.41,74.94,54.83Z"/>
  <path class="cls-2" d="M525.41,268.58c-8.83-42.14-41.82-75.29-84.21-84.13,7.56-34.42,39.45-57.62,74.31-54.89,34.39,2.69,61.93,30.09,64.69,64.55,2.8,34.85-20.25,66.74-54.79,74.48Z"/>
  <path class="cls-7" d="M418.96,140.31c-16.16-24.36-40.54-41.02-68.9-46.98,7.37-32.79,36.29-55.17,69.06-55.07s61.46,22.91,68.51,55.19c-28.63,6.06-52.71,22.83-68.67,46.87Z"/>
  <g>
    <path class="cls-4" d="M470.48,474.17l-.02,73.3c0,4.95-.83,9.48-2.13,14.02-2.41,8.45-7.84,15.25-15.36,19.65-6.49,3.8-13.57,5.03-21.13,5.11-13.06.15-25.29-3.65-35.83-11.51l-1.22,9.44h-30.55s0-109.99,0-109.99l33-.04v77.98c8.05,7.17,17.26,10.51,28.03,8.95,7.13-1.04,11.05-6.36,11.92-13.57l.05-73.34h33.22Z"/>
    <g>
      <path class="cls-4" d="M209.14,544.89l.12-70.95h33s-.13,71.85-.13,71.85c-.01,6.52-1.87,12.74-4.68,18.39-12.22,24.58-53.82,25.11-77.94,18.32-8.98-2.53-16.5-7.13-22.08-14.53-8.1-13.72-6.75-32.22,7.72-40.93-8.24-4.79-12.35-13.2-12.2-22.49.26-16.27,7.83-25.83,23.29-30.7,11.65-2.93,23.73-2.57,35.5.99l.03,23.37c-6.51-1.36-13.05-2.23-19.53-.82-4.25.92-6.88,4.36-6.48,8.67-.13,2.75.65,5.12,2.48,7.19,2.45,1.22,5.27,2.36,8.1,2.37l13.99.07,1.24,22.43-13.91.17c-3.4.04-7.15.95-9.56,3.5-3.64,3.84-3.93,10.45-.51,14.52,4.92,5.84,20.85,5.97,29.34,3.83,7.1-1.79,12.2-7.36,12.21-15.25Z"/>
      <path class="cls-4" d="M60.2,561.4l.09,21.95c-20.14,5.53-50.16,4.7-57.89-16.79-2.72-7.56-3-15.6-1.46-23.45,3.53-18.04,21.05-26.95,38.46-27.03l33.37-.15-.12-6.26c-.1-4.95-3.55-8.97-8.15-10.74-3.78-1.45-7.74-1.8-11.85-2.19-13.9-.4-27.25,1.33-41.11,5.63l-.05-23.68c13.54-4.33,27.23-6.38,41.36-6.8,7.46-.02,14.33.6,21.57,2.05h40.89s-1.65,24.51-1.65,24.51h-11.91c2.79,5.38,3.45,10.53,4,16.39l.02,69.34h-33.01s0-45.02,0-45.02l-25.15.1c-4.28.02-8.4.95-12.06,2.93-2.77,2.61-3.61,6.13-3.24,9.88-.41,4.85,2.63,8.85,7.4,9.68,6.59,1.44,12.78,1.09,20.5-.34Z"/>
      <path class="cls-4" d="M305.26,515.47c-.77-9.04-2.7-15.71-11.39-17.97-4.63-.94-9.2-.96-14.02-.58-7.26.9-13.99,2.72-21.09,5.23l-.02-23.34c12.36-5.13,25.61-7.52,39.1-6.77,16.76.99,31.19,5.98,37.19,22.38,2.25,6.14,2.86,12.23,3.21,18.9l.03,70.86h-33.02s0-68.7,0-68.7Z"/>
    </g>
  </g>
  <g>
    <path class="cls-4" d="M780.78,583.41c-22.21,6.01-52.85,3.98-58.72-21.06-3.94-16.81.45-33.84,16.7-41.45,6.59-3.09,13.66-4.8,21.14-4.83l33.36-.14-.14-6.65c-.2-9.29-10.83-12.31-19.99-12.54-14.04-.45-27.7,1.5-41.14,5.62v-23.72c15.78-4.8,31.89-7.18,48.32-6.64,27.55,1.61,44.98,12.68,46.18,41.63v70.55s-33.24,0-33.24,0v-45.02s-25.16.08-25.16.08c-3.87.01-7.59.97-11.05,2.44-3.19,2.33-4.42,5.97-4,9.86-.49,5,2.24,9.08,7.17,10.19,6.66,1.44,13.28,1.08,20.51-.39l.05,22.06Z"/>
    <polygon class="cls-6" points="732.92 460.93 734.48 438.67 799.2 438.67 799.3 422.67 825.99 422.67 826 460.94 732.92 460.93"/>
  </g>
  <path class="cls-5" d="M620.52,501.69l-.9.35c-.17.05-.14-.3-.14-.5l1.04.15Z"/>
  <g>
    <path class="cls-4" d="M552.7,561.4l.09,21.95c-20.14,5.53-50.16,4.7-57.89-16.79-2.72-7.56-3-15.6-1.46-23.45,3.53-18.04,21.05-26.95,38.46-27.03l33.37-.15-.12-6.26c-.1-4.95-3.55-8.97-8.15-10.74-3.78-1.45-7.74-1.8-11.85-2.19-13.9-.4-27.25,1.33-41.11,5.63l-.05-23.68c13.54-4.33,27.23-6.38,41.36-6.8,7.46-.02,14.33.6,21.57,2.05h40.89s-1.65,24.51-1.65,24.51h-11.91c2.79,5.38,3.45,10.53,4,16.39l.02,69.34h-33.01s0-45.02,0-45.02l-25.15.1c-4.28.02-8.4.95-12.06,2.93-2.77,2.61-3.61,6.13-3.24,9.88-.41,4.85,2.63,8.85,7.4,9.68,6.59,1.44,12.78,1.09,20.5-.34Z"/>
    <path class="cls-4" d="M620.52,501.69l-1.04-.15.05-22.76c17.17-6.98,35.8-8.97,53.54-4.51,18.74,4.72,25.52,20.37,25.92,38.87l.02,71.04h-33.01s0-68.55,0-68.55c-.58-8.58-2.72-16.06-11.24-18.02-11.33-2.61-23.49.68-34.24,4.09Z"/>
    <path class="cls-1" d="M580.57,467.02c-9.17-.57-17.32-5.16-21.6-13.04-4-7.39-3.98-16.44,0-23.81,4.46-8.25,13.08-12.82,22.35-13.12s16.65,3,22.21,10c6.73,8.48,6.79,21.55.02,30-5.7,7.12-13.68,10.55-22.99,9.97ZM590.71,442.07c0-4.63-3.75-8.38-8.38-8.38s-8.38,3.75-8.38,8.38,3.75,8.38,8.38,8.38,8.38-3.75,8.38-8.38Z"/>
    <circle class="cls-8" cx="582.33" cy="442.07" r="8.38"/>
  </g>
</svg>
