<?xml version="1.0" encoding="UTF-8"?>
<svg id="Layer_1" data-name="Layer 1" xmlns="http://www.w3.org/2000/svg" viewBox="0 0 1999.62 618.23">
  <defs>
    <style>
      .cls-1 {
        fill: #5b5c5c;
      }

      .cls-2 {
        fill: #24b49c;
      }

      .cls-3 {
        fill: #fdfdfd;
      }
    </style>
  </defs>
  <g>
    <g>
      <path class="cls-1" d="M1015.15,537.23l-26.66.07-.16-58.14c-.02-5.94-4.3-10.05-10.16-9.87s-10.61,3.12-15.14,6.98l-.08,61.25-27.26-.13-.04-88.29,25.52.04,1.42,7.84c14.55-11.2,36.56-14.7,47.99.27,10.47-7.24,22.49-11.18,35.04-9.65,11.23,1.36,19.63,8.54,21.48,19.74l1.17,17.77v52.16s-27.42.2-27.42.2l-.24-58.29c-.02-5.69-3.92-9.77-9.4-9.95-6.07-.2-11.37,2.21-16.2,5.9l.14,62.11Z"/>
      <polygon class="cls-1" points="1707 449.5 1734.69 449.16 1712.83 537.41 1687.6 537.22 1673.38 490.99 1658.23 537.29 1632.63 537.46 1611.83 449.47 1639.09 449.13 1649.82 499.62 1661.9 462.64 1661.11 449.19 1682.33 449.19 1696.03 498.77 1707 449.5"/>
      <path class="cls-1" d="M1234.69,536.88c-24.65,5.89-55.23,1.96-62.76-23.33-3.72-12.5-3.65-25.71-.3-38.24,7.11-26.67,37.17-31.69,62.21-25.67,11.24,2.7,20.77,10.06,24.86,20.96,9.19,24.49,4.15,59.56-24.01,66.29ZM1230.39,508.59c4.21-8.04,3.6-18.1,1.9-26.4s-8.48-11.07-15.97-11.23c-8.18-.17-15.14,3.53-17.21,11.97-1.64,6.69-1.51,14.45.12,21.18,1.81,7.45,7.5,11.39,15.16,11.43,5.65.03,12.83-.92,15.99-6.95Z"/>
      <path class="cls-1" d="M1934.05,514.85c-8.38,24.13-37.23,27.42-60.8,22.32-27.88-6.03-33.53-37.47-26.29-62.6,3.69-12.82,13.82-21.84,26.86-25,20.23-4.9,48.75-1.85,57.94,16.98,7.35,15.08,7.75,32.59,2.29,48.3ZM1907.98,501.2c.68-5.58.63-11.53-.08-16.63-1.24-9.02-7.96-13.46-16.61-13.62s-15.25,3.65-17.13,12.31c-1.49,6.87-1.37,14.56.43,21.31,2.08,7.76,8.13,11.01,15.68,11.09,9.15.09,16.48-4.45,17.71-14.45Z"/>
      <path class="cls-1" d="M1464.23,536.58c-13.21,3.61-26.78,3.46-39.61.17-13.42-3.44-22.8-14.1-25.43-27.45-4.96-25.14.66-52.57,26.86-59.48,11.61-3.06,24.06-3.02,35.7-.29,13.64,3.2,23.45,12.61,27.09,26.06,6.47,23.88,1.47,53.85-24.61,60.98ZM1461.66,500.81c.74-5.57.81-11.57-.11-16.68-1.72-9.57-9.2-13.8-18.27-13.22-8.11.52-14.11,4.19-15.82,12.7-1.21,6.05-1.08,12.99-.04,19.12,1.45,8.55,7.63,12.57,15.85,12.93,9.46.42,17.02-4.62,18.38-14.85Z"/>
      <path class="cls-1" d="M1806.57,536.8c-12.95,3.31-25.69,3.1-38.26.13-26.07-6.16-31.96-36.89-25.43-61.31,3.6-13.47,13.34-22.9,26.96-26.11,24.71-5.82,55.51-.65,61.94,26.01,5.81,24.09.99,54.59-25.21,61.29ZM1804.39,501.6c.8-5.56.66-11.39.12-16.49-1.02-9.56-8.04-14.14-17.24-14.19-7.47-.04-14.28,2.89-16.41,10.72-2.15,7.89-2.15,16.61.5,24.4,2.37,7,8.93,9.55,15.92,9.58,8.75.04,15.76-4.66,17.12-14.02Z"/>
      <path class="cls-1" d="M863.3,539.15c-18.96.11-32.74-6.53-33.74-26.05-.77-15.1,8.88-26.37,23.96-29.01,10.69-1.87,21.53-.96,33.25-.37,1.33-3.18.75-6.98-1.32-10.08-6-8.99-30.87-4.9-45.28-.67l.04-19.8c16.58-5.27,33.69-7.66,50.32-3.57,14.44,3.55,23.88,14.73,23.95,29.54l.29,58.38h-23.92c-1.31-2.42-1.17-4.59-1.83-7.88-7.19,6.75-15.92,9.45-25.72,9.51ZM887.08,514.46l.21-14.38-21.76.2c-4.93.05-8.84,3.72-9.51,7.53-.74,4.17-.32,9.87,3.83,11.66,9.03,3.89,20.06,1.84,27.23-5.01Z"/>
      <path class="cls-1" d="M1557.4,469.42c-8.3-.82-15.74,2.84-20.96,8.58v59.39s-28.32-.04-28.32-.04v-88.22s26.08.04,26.08.04l1.43,8.14c13.57-10.34,31.7-13.58,47.27-5.81,8.72,4.35,11.3,13.7,12.16,23.1l.2,62.71-27.95.05-.17-57.82c-.52-5.54-3.64-9.52-9.72-10.12Z"/>
      <path class="cls-1" d="M738.65,535.5c-15.89,6.14-39.28,4.03-55.94-1.55l.13-23.15c14.19,5.69,41.68,10.3,42.56.75.24-2.57-2.19-4.75-4.97-5.73l-22.72-8.03c-11.22-3.96-16.82-14.21-15.79-25.84s8.9-19.83,20.83-22.51c15.06-3.47,30.75-2.07,45.83,2.55l.07,22.12c-11.4-3.17-21.92-5.68-32.92-3.69-2.61.47-4.87,2-5.06,4.14-.25,2.78,2.11,4.49,4.87,5.48l25.55,9.17c8.83,4.46,13.33,12.21,13.49,21.86.18,11.06-5.44,20.39-15.91,24.43Z"/>
      <path class="cls-1" d="M1330.19,514.35l-.1,21.64c-11.49,3.34-23.98,5.17-35.34.4-8.79-3.69-14.49-13.5-14.61-22.98l-.52-41.58-10.99-.36-.22-22.33,11.16-.14.19-18.63,27.96-7.54.25,26.22,19.31.05-.04,22.55-19.44.05.23,35.31c.04,5.82,4.51,9.64,10.03,9.74,4.27.08,7.74-1.12,12.13-2.42Z"/>
      <path class="cls-1" d="M1391.69,514.14l.05,21.4c-11.76,4.13-24.81,5.6-36.39.37-8.61-3.89-13.81-13.42-13.92-22.86l-.51-41.11-10.82-.15c-1.03-7.38-1.03-14.64-.17-22.65l10.75-.14.33-18.15,27.73-7.62.32,25.82,20.24.15-.02,22.49-20.38-.04.23,34.39c.04,6.1,3.9,10.87,10.16,10.64,4.06.08,7.18-.81,12.4-2.53Z"/>
      <path class="cls-1" d="M1129.94,516.14c10.75,1.62,20.49-.73,30.97-4.72l.29,22.08c-14.93,6.23-31.7,7.44-47.71,3.35-14.56-3.71-25.01-15.22-27.89-29.9-4.87-24.82,2.71-50.57,28.61-57.2,15.54-3.98,32.12-2.76,46.92,3.27l.08,22.12c-18.8-7.97-43.47-9.08-47.28,10.7-2.71,14.1,1.1,27.61,16.02,30.28Z"/>
      <path class="cls-1" d="M1999.62,515.46l-.13,20.65c-8.43,3-16.81,3.76-25.69,2.38-9.62-1.49-17.01-9.47-17.06-20.1l-.46-105.12,28.04-.04.04,96.6c0,2.08,1.12,3.93,1.93,4.94,1.17,1.45,3.81,2.13,6.03,1.8l7.31-1.11Z"/>
      <polygon class="cls-1" points="783.44 537.37 783.27 471.61 771.89 471.22 774.5 449.1 811.57 449.12 811.73 537.29 783.44 537.37"/>
      <rect class="cls-1" x="781.88" y="413.81" width="30.02" height="22.72" transform="translate(-2.3 4.34) rotate(-.31)"/>
    </g>
    <g>
      <path class="cls-1" d="M1419.14,166.3l-.25,125.53c-.02,10.31-2.24,19.65-6.03,28.92-14.58,35.59-58.47,42.16-91.44,27.29l-21.34-12.53-2.36,16.62-48.95.17-.03-186,52.58.02v131.57c12.81,11.86,30.71,20.21,47.05,15.46,10.69-3.11,16.45-11.15,17.25-22.48l.17-124.39,53.35-.19Z"/>
      <g>
        <path class="cls-1" d="M1002,288.75l.23-122.44,54.26-.04-.3,115.42c-2.04,24.41-8.71,48.62-30.37,60.96-26.55,15.12-66.95,15.12-96.82,8.87-11.09-2.32-20.95-6.7-29.8-13.27-15.86-11.77-20.05-30.82-17.98-50.25,1.4-13.04,8.37-23.73,19.48-30.46-24.11-16.2-24.98-52.93-8.89-73.92,17.31-22.58,57.17-24.36,83.93-16.18v40.19s-13.19-2.16-13.19-2.16c-6.93-1.13-13.85-1.09-20.42,1.31-6.4,2.33-9.39,7.96-9.54,14.44-.21,9.01,5.64,15.75,15,16.8l25.46.38.11,37.96-24.34.13c-5.26.03-10.59,2.05-14,6.2-3.78,4.6-4.1,10.6-2.53,16.52,4.18,15.77,33.96,19.11,52.51,12.65,10.39-3.62,15.91-11.55,17.16-23.1Z"/>
        <path class="cls-1" d="M765.26,314.25l.05,36.03c-25.05,7.1-57.01,8.81-77.6-7.61-17.98-14.34-20.53-43.26-14.01-65.17,4.49-15.09,14.48-26.88,28.98-33.06,7.78-3.32,15.97-5.89,24.7-5.95l58.86-.4c.35-8.49-1.15-17.63-7.33-23.63-6.92-6.71-16.6-8.16-26.04-9.21-22.01-1.48-43.17,2.39-64.88,9.21l-.19-40.27c18.99-6.03,38.24-9.95,58.43-11.11,13.42-.26,25.91.66,39.08,3.29l68.84-.12-2.36,41.39-20.96.28c5.03,9.75,6.5,19.44,7.44,30.26l.06,114.07-51.95-.04v-74.41s-46.05.05-46.05.05c-6.58,0-12.61,2.75-16.49,7.84-4.24,7.69-3.88,16.96.17,24.66,3.57,3.99,8.44,5.7,13.7,6.45,9.12.96,17.55-.46,27.56-2.56Z"/>
        <path class="cls-1" d="M1155.03,352.28l-.07-117.3c0-8.58-2.41-16.41-8.04-22.47-7.06-5.56-15.59-7.79-24.7-7.39-14.27.75-27.44,4.5-41.24,10.18l-.02-41.25c16.7-6.57,33.54-10.56,51.29-11.13,13.18-.06,25.75.66,37.89,5.26,26.07,9.52,36.19,30.65,37.39,58.06l.07,126-52.57.05Z"/>
      </g>
      <path class="cls-1" d="M1730.37,352.26l-.44-115.83c-.03-8.33-1.86-16.62-7.39-22.54-6.47-6.94-15.94-8.76-25.31-8.85-14.24,1.24-27.46,4.33-40.95,10.21l-.14-40.74c24-10.26,50.34-14.25,76.35-9.78,28.62,5.6,44.83,22.32,48.69,51.21l.91,37.22-.07,99.07-51.65.03Z"/>
      <g>
        <path class="cls-1" d="M1913.48,350.35c-22.24,5.98-46.58,8.07-67.85-1.57-26.3-11.75-32.22-45.93-24.45-71.73,8.36-27.75,34.06-38.89,62.16-38.86l51.19.04c1.44-13.39-3.45-25.37-15.89-29.63-9.44-3.23-19.21-3.84-29.37-3.61-18.18.45-35.32,4.06-52.55,9.77l-.06-40.61c20.45-6.17,40.91-11.05,62.6-11.16,38-1.04,75.44,8.35,85.11,47.99l2.55,16.76.1,124.45-52.43.07.07-74.5-47.2.24c-11.5.06-19.15,8.91-18.08,20.1-.65,9.88,5.57,17.7,15.57,18.54,9.37,1.31,18.58-.33,28.48-2.28l.05,36.01Z"/>
        <path class="cls-1" d="M1839.77,142.54c-1.25-6.36,0-12.77.08-19.43l.22-18.4,103.24-.1.43-28.06h43.6s.02,65.99.02,65.99h-147.6Z"/>
      </g>
      <path class="cls-1" d="M1549.33,314.21l.19,36.13c-26.22,7.23-60.24,8.83-80.47-9.99-16.16-15.04-17.64-43.28-10.93-64.37,3.56-11.2,10.44-20.45,20.24-26.87s21.24-10.53,33.27-10.61l58.11-.39c.91-8.65-1.16-18.43-8.02-24.38s-15.93-7.33-25.03-8.43c-21.94-1.44-43.26,2.11-64.49,9.3l-.11-40.14c17.5-6.08,35.6-9.27,54.28-11.14,14.46-1.45,27.7,1.31,42.04,2.42l68.98.62-.84,22.69-1.24,18.59-21.01.14c5.3,10.72,7.69,21.9,7.65,34.39l-.02,110.09-52.11-.04-.1-74.48-47.24.26c-11.38.06-18.81,9.05-17.4,20.06-1.19,9.49,4.7,16.94,14.22,18.31,9.73,1.84,19.13.02,30.02-2.18Z"/>
      <path class="cls-1" d="M1639.17,110.01c0,22.91-18.57,41.49-41.49,41.49s-41.49-18.57-41.49-41.49,18.57-41.49,41.49-41.49,41.49,18.57,41.49,41.49ZM1611.01,108.86c-.7-7.15-6.11-12.25-12.26-12.76-6.52-.53-12.12,4.09-13.84,10.54-2.37,8.86,3.11,16.96,11.93,17.64,8.05.62,15.08-6.26,14.18-15.42Z"/>
    </g>
  </g>
  <g>
    <path class="cls-2" d="M246.64,609.99c-60.85-20.46-100.59-73.88-109.52-136.98C59.18,459.66,3.67,393.95.22,315.05c-2.11-41.56,11.19-80.95,35.97-114.17,24.45-32.79,61.09-53.9,101.67-60,6.03-40.5,25.56-77.65,56.16-103.32,73.36-61.53,183.6-45.58,236.32,34.16,13.63,20.62,21.84,44.32,25.75,69.6,30.97,4.88,59.23,17.6,82.16,39.02,36.82,34.38,57.13,84.09,54.92,134.65-3.43,78.48-58.44,145.38-136.59,158.15-2.83,21.24-8.99,40.88-18.63,59.31-36.03,68.94-116.93,102.55-191.32,77.54ZM297.08,214.48c23.29-38.1,60.24-63.49,103.78-72.13-5.17-23.43-16.9-43.8-34.21-59.49-38.74-35.13-97.59-35.51-137.23-1.51-18.54,15.9-31.48,37.23-35.54,61.5,29.27,5.65,54.55,19.24,75.99,38.66,10.79,9.35,18.36,20.61,27.2,32.97ZM138.89,414.68c5.83-30.92,19.39-56.93,39.13-80.01,22.26-26.02,52.28-43.71,86.66-50.85-6.29-32.76-26.84-61.22-56.75-76.17-45.42-22.7-100.22-8.73-130.04,32.22-33.03,45.36-28.97,106.22,10.24,146.41,13.69,14.03,30.8,23.86,50.75,28.4ZM455.39,414.69c26.35-6.03,46.66-21.38,61.33-41.98,35.43-49.77,25.15-118.79-23.67-155.46-39.55-29.72-94.29-26.68-130.85,6.95-17,15.63-28.4,36-33.53,59.15,64.87,13.53,113.68,66.19,126.72,131.34ZM363.37,535.57c47.65-41.18,53.03-115.35,10.18-162.67-38.07-42.03-101.75-46.35-143.97-8.61-26.6,23.78-40.87,57.73-37.92,93.43,2.61,31.59,17.6,60.88,42.24,80.55,38.24,30.53,92.2,29.51,129.47-2.69Z"/>
    <path class="cls-3" d="M363.37,535.57c-37.26,32.2-91.23,33.22-129.47,2.69-24.64-19.67-39.63-48.96-42.24-80.55-2.95-35.7,11.32-69.65,37.92-93.43,42.22-37.74,105.91-33.41,143.97,8.61,42.85,47.31,37.47,121.49-10.18,162.67Z"/>
    <path class="cls-3" d="M138.89,414.68c-19.95-4.54-37.06-14.37-50.75-28.4-39.21-40.19-43.27-101.05-10.24-146.41,29.82-40.96,84.62-54.93,130.04-32.22,29.91,14.95,50.46,43.41,56.75,76.17-34.39,7.15-64.41,24.83-86.66,50.85-19.74,23.08-33.3,49.09-39.13,80.01Z"/>
    <path class="cls-3" d="M455.39,414.69c-13.04-65.15-61.85-117.81-126.72-131.34,5.14-23.15,16.54-43.52,33.53-59.15,36.56-33.63,91.3-36.67,130.85-6.95,48.81,36.67,59.09,105.69,23.67,155.46-14.67,20.61-34.98,35.95-61.33,41.98Z"/>
    <path class="cls-3" d="M297.08,214.48c-8.84-12.36-16.41-23.62-27.2-32.97-21.44-19.42-46.72-33.01-75.99-38.66,4.05-24.27,16.99-45.6,35.54-61.5,39.64-34,98.48-33.62,137.23,1.51,17.31,15.69,29.04,36.07,34.21,59.49-43.54,8.64-80.5,34.03-103.78,72.13Z"/>
  </g>
</svg>